<?xml version="1.0" encoding="utf-8"?>
<!-- Generator: Adobe Illustrator 16.0.0, SVG Export Plug-In . SVG Version: 6.00 Build 0)  -->
<!DOCTYPE svg PUBLIC "-//W3C//DTD SVG 1.1//EN" "http://www.w3.org/Graphics/SVG/1.1/DTD/svg11.dtd">
<svg version="1.1" id="Layer_1" xmlns="http://www.w3.org/2000/svg" xmlns:xlink="http://www.w3.org/1999/xlink" x="0px" y="0px"
	 width="792px" height="612px" viewBox="0 0 792 612" enable-background="new 0 0 792 612" xml:space="preserve">
<g>
	<path fill="#FFFFFF" d="M272.936,408.162c0.285,22.901,4.799,52.542,16.996,67.638c10.559,13.06,37.074,28.634,103.429,28.634
		c66.354,0,92.873-15.574,103.43-28.634c12.201-15.098,16.715-44.74,16.996-67.638c-11.603-14.09-50.057-43.274-120.426-43.274
		C323.003,364.888,284.543,394.069,272.936,408.162z"/>
	<g>
		<g>
			<defs>
				<path id="SVGID_1_" d="M393.915,95.076c-146.642,0-210.899,142.051-210.899,219.768c0,77.72,47.792,108.529,83.921,121.856
					c4.849,57.095,48.924,78.795,126.979,78.795s122.13-21.7,126.979-78.795c36.13-13.327,83.926-44.137,83.926-121.856
					C604.819,237.126,540.559,95.076,393.915,95.076z M493.098,474.559c-19.323,20.922-62.853,28.482-99.183,28.482
					c-36.335,0-79.857-7.561-99.183-28.482c-14.388-15.573-17.473-44.903-17.125-64.102c7.78-10.895,43.479-40.294,116.308-40.294
					c72.831,0,108.528,29.399,116.308,40.294C510.571,429.655,507.485,458.985,493.098,474.559z"/>
			</defs>
			<clipPath id="SVGID_2_">
				<use xlink:href="#SVGID_1_"  overflow="visible"/>
			</clipPath>
			<g clip-path="url(#SVGID_2_)">
				<g>
					<g enable-background="new    ">
						<path fill="#FFFFFF" d="M349.759,386.945c-10.129,0-11.665,15.791-11.665,34.436c0,18.639,1.761,35.337,11.099,35.337
							c9.336,0,11.097-16.244,11.097-34.885C360.291,403.19,359.89,386.945,349.759,386.945z"/>
						<path fill="#EC1D25" d="M349.194,468.139c-22.52,0-22.52-31.583-22.52-46.758c0-14.884,0-45.856,23.085-45.856
							c21.954,0,21.954,26.766,21.954,46.309C371.713,436.861,371.713,468.139,349.194,468.139z"/>
					</g>
					<g enable-background="new    ">
						<path fill="#FFFFFF" d="M393.915,94.071c-146.642,0-210.899,142.05-210.899,219.767s47.795,108.527,83.921,121.856
							c4.849,57.094,48.924,78.793,126.979,78.793s122.13-21.699,126.979-78.793c36.13-13.329,83.926-44.14,83.926-121.856
							S540.559,94.071,393.915,94.071z M492.398,472.852c-19.326,20.921-62.15,25.495-98.484,25.495
							c-36.331,0-79.156-4.574-98.48-25.495c-14.388-15.577-18.172-44.203-17.828-63.399c7.782-10.895,43.479-40.296,116.308-40.296
							c72.831,0,108.528,29.401,116.308,40.296C510.571,428.648,506.783,457.274,492.398,472.852z"/>
						<path fill="#EC1D25" d="M393.915,525.907c-54.417,0-126.949-8.695-137.541-82.081
							c-55.502-22.942-84.779-67.743-84.779-129.988c0-36.995,13.867-94.761,52.79-145.94
							c29.574-38.891,82.994-85.248,169.53-85.248c86.539,0,139.958,46.357,169.532,85.248
							c38.926,51.179,52.793,108.945,52.793,145.94c0,62.245-29.277,107.049-84.783,129.988
							C520.868,517.212,448.332,525.907,393.915,525.907z M289.019,413.557c0.249,17.454,4.179,40.044,14.803,51.548
							c9.199,9.953,32.294,21.823,90.093,21.823c57.798,0,80.897-11.87,90.092-21.823c10.629-11.506,14.561-34.098,14.804-51.548
							c-10.105-10.739-43.601-32.98-104.896-32.98C332.629,380.576,299.129,402.815,289.019,413.557z M393.915,105.49
							c-77.177,0-124.903,41.455-151.35,76.232c-35.525,46.713-48.129,100.365-48.129,132.116c0,53.468,24.28,90.284,72.185,109.497
							c-0.46-6.09-0.484-11.071-0.432-14.09l0.064-3.545l2.062-2.887c11.138-15.591,51.72-45.076,125.6-45.076
							c73.885,0,114.467,29.485,125.603,45.076l2.058,2.887l0.064,3.543c0.057,3.021,0.032,8-0.429,14.092
							c47.909-19.213,72.188-56.029,72.188-109.497c0-31.75-12.604-85.402-48.13-132.116
							C518.82,146.945,471.093,105.49,393.915,105.49z"/>
					</g>
					<g enable-background="new    ">
						<path fill="#FFFFFF" d="M438.071,386.945c-10.133,0-10.534,16.245-10.534,34.888c0,18.641,1.763,34.885,11.1,34.885
							c9.335,0,11.099-16.698,11.099-35.337C449.735,402.736,448.201,386.945,438.071,386.945z"/>
						<path fill="#EC1D25" d="M438.637,468.139c-22.519,0-22.519-31.277-22.519-46.306c0-19.543,0-46.309,21.953-46.309
							c23.085,0,23.085,30.973,23.085,45.856C461.156,436.556,461.156,468.139,438.637,468.139z"/>
					</g>
				</g>
			</g>
			<g clip-path="url(#SVGID_2_)">
				<g>
					<path fill="#EC1D25" d="M699.463,558.835c-71.751-53.439-127.031-115.773-164.302-185.261
						c-29.844-55.647-48.26-115.958-54.732-179.257C469.41,86.547,497.336,6.188,497.619,5.389l9.249,3.277
						c-0.274,0.783-27.531,79.414-16.63,185.09c10.043,97.359,55.508,238.358,215.085,357.208L699.463,558.835z"/>
				</g>
				<g>
					<g>
						<g>
							<path fill="#EC1D25" d="M486.482,42.526c2.953-3.253,2.953-3.253,2.953-3.253"/>
						</g>
						<g>
							<path fill="#EC1D25" d="M506.238,65.326"/>
						</g>
					</g>
				</g>
				<g>
					<g>
						<path fill="#333333" d="M460.028,155.823c0.79,1.619-0.117,3.155-1.487,4.557c-1.309,1.355-3.834,1.009-4.837-1.039
							c-0.791-1.624,0.173-4.457,1.977-4.833C457.575,154.124,459.233,154.195,460.028,155.823z"/>
					</g>
					<g>
						<path fill="#333333" d="M504.84,164.282c0.583-1.526,2.278-1.395,4.208-0.759c1.873,0.616,3.376,3.195,2.643,5.121
							c-0.575,1.539-3.224,1.972-4.733,0.433C505.364,167.444,504.262,165.818,504.84,164.282z"/>
					</g>
					<g>
						<g>
							<path fill="#EC1D25" d="M479.672,138.847c25.718,12.938,44.251,43.722,19.248,23.741c0,0-24.289-16.272-21.762-20.005
								C479.672,138.847,479.672,138.847,479.672,138.847z"/>
						</g>
						<g>
							<path fill="#EC1D25" d="M485.849,139.656c-25.813,4.531-44.632,29.219-19.464,17.426c0,0,24.409-8.318,21.935-12.875
								C485.849,139.656,485.849,139.656,485.849,139.656z"/>
						</g>
					</g>
				</g>
				<g>
					<g>
						<path fill="#333333" d="M461.82,191.31c0.791,1.61-0.113,3.147-1.482,4.56c-1.315,1.35-3.837,1-4.842-1.044
							c-0.795-1.617,0.166-4.456,1.975-4.833C459.362,189.614,461.028,189.685,461.82,191.31z"/>
					</g>
					<g>
						<path fill="#333333" d="M506.637,199.769c0.563-1.525,2.27-1.397,4.204-0.761c1.863,0.619,3.378,3.189,2.652,5.124
							c-0.579,1.535-3.229,1.964-4.739,0.436C507.153,202.928,506.057,201.305,506.637,199.769z"/>
					</g>
					<g>
						<g>
							<path fill="#EC1D25" d="M481.462,174.334c25.712,12.93,44.255,43.727,19.247,23.74c0,0-24.285-16.268-21.763-20.012
								C481.462,174.334,481.462,174.334,481.462,174.334z"/>
						</g>
						<g>
							<path fill="#EC1D25" d="M487.641,175.146c-25.815,4.52-44.629,29.213-19.461,17.422c0,0,24.412-8.314,21.933-12.866
								C487.641,175.146,487.641,175.146,487.641,175.146z"/>
						</g>
					</g>
				</g>
				<g>
					<g>
						<path fill="#333333" d="M466.515,229.827c0.875,1.562,0.074,3.169-1.199,4.702c-1.219,1.485-3.735,1.325-4.841-0.653
							c-0.874-1.569-0.101-4.504,1.664-5.021C463.995,228.316,465.631,228.255,466.515,229.827z"/>
					</g>
					<g>
						<path fill="#333333" d="M511.31,234.729c0.484-1.589,2.175-1.583,4.115-1.105c1.875,0.47,3.522,2.947,2.915,4.947
							c-0.478,1.595-3.064,2.25-4.648,0.816C512.003,237.874,510.823,236.319,511.31,234.729z"/>
					</g>
					<g>
						<g>
							<path fill="#EC1D25" d="M484.925,211.147c26.2,10.954,46.322,40.464,20.439,22.342c0,0-24.966-14.418-22.699-18.386
								C484.925,211.147,484.925,211.147,484.925,211.147z"/>
						</g>
						<g>
							<path fill="#EC1D25" d="M491.08,211.472c-25.244,6.627-42.388,33.006-18.209,19.11c0,0,23.648-10.339,20.931-14.725
								C491.08,211.472,491.08,211.472,491.08,211.472z"/>
						</g>
					</g>
				</g>
				<g>
					<g>
						<path fill="#333333" d="M474.6,270.144c0.973,1.497,0.295,3.196-0.867,4.859c-1.112,1.582-3.6,1.668-4.822-0.226
							c-0.969-1.508-0.388-4.527,1.307-5.213C472.016,268.839,473.632,268.634,474.6,270.144z"/>
					</g>
					<g>
						<path fill="#333333" d="M519.12,270.962c0.356-1.645,2.024-1.8,3.981-1.495c1.884,0.301,3.677,2.631,3.212,4.709
							c-0.377,1.652-2.885,2.55-4.54,1.25C520.013,274.05,518.752,272.612,519.12,270.962z"/>
					</g>
					<g>
						<g>
							<path fill="#EC1D25" d="M491.512,249.637c26.568,8.613,48.402,36.487,21.655,20.624c0,0-25.598-12.22-23.629-16.444
								C491.512,249.637,491.512,249.637,491.512,249.637z"/>
						</g>
						<g>
							<path fill="#EC1D25" d="M497.601,249.384c-24.456,9.008-39.598,37.176-16.677,20.936c0,0,22.623-12.602,19.652-16.758
								C497.601,249.384,497.601,249.384,497.601,249.384z"/>
						</g>
					</g>
				</g>
				<g>
					<g>
						<path fill="#333333" d="M489.709,315.376c1.168,1.291,0.774,3.15-0.045,5.084c-0.8,1.852-3.176,2.488-4.651,0.843
							c-1.18-1.287-1.117-4.465,0.41-5.535C487.021,314.649,488.543,314.081,489.709,315.376z"/>
					</g>
					<g>
						<path fill="#333333" d="M532.419,306.324c0.102-1.745,1.664-2.269,3.583-2.4c1.854-0.116,3.946,1.848,3.831,4.041
							c-0.079,1.75-2.34,3.202-4.131,2.267C533.796,309.251,532.34,308.058,532.419,306.324z"/>
					</g>
					<g>
						<g>
							<path fill="#EC1D25" d="M502.557,290.954c26.83,2.791,52.232,26.033,24.063,15.978c0,0-26.466-6.638-25.265-11.329
								C502.557,290.954,502.557,290.954,502.557,290.954z"/>
						</g>
						<g>
							<path fill="#EC1D25" d="M508.346,289.356c-21.939,14.511-31.868,46.243-12.569,24.798c0,0,19.614-17.726,16.096-21.257
								C508.346,289.356,508.346,289.356,508.346,289.356z"/>
						</g>
					</g>
				</g>
				<g>
					<g>
						<path fill="#333333" d="M508.595,355.209c1.31,1.075,1.206,3.038,0.675,5.133c-0.505,2.031-2.695,3.116-4.366,1.769
							c-1.312-1.092-1.698-4.313-0.392-5.678C505.895,354.999,507.279,354.117,508.595,355.209z"/>
					</g>
					<g>
						<path fill="#333333" d="M548.516,337.818c-0.153-1.778,1.289-2.617,3.106-3.118c1.778-0.478,4.073,1.107,4.276,3.332
							c0.172,1.785-1.801,3.686-3.675,3.091C550.251,340.491,548.682,339.583,548.516,337.818z"/>
					</g>
					<g>
						<g>
							<path fill="#EC1D25" d="M517.551,328.097c26.255-2.378,54.038,16.139,25.46,11.455c0,0-26.466-1.571-25.961-6.521
								C517.551,328.097,517.551,328.097,517.551,328.097z"/>
						</g>
						<g>
							<path fill="#EC1D25" d="M522.908,325.359c-19.113,18.876-24.22,52.806-8.625,27.434c0,0,16.416-21.651,12.521-24.54
								C522.908,325.359,522.908,325.359,522.908,325.359z"/>
						</g>
					</g>
				</g>
				<g>
					<g>
						<path fill="#333333" d="M527.079,392.803c1.395,0.9,1.49,2.89,1.183,5.083c-0.298,2.122-2.33,3.526-4.088,2.383
							c-1.393-0.912-2.103-4.093-0.957-5.656C524.429,392.96,525.696,391.891,527.079,392.803z"/>
					</g>
					<g>
						<path fill="#333333" d="M564.348,369.725c-0.326-1.757,0.994-2.793,2.726-3.556c1.689-0.732,4.085,0.542,4.516,2.761
							c0.336,1.776-1.39,3.984-3.28,3.641C566.316,372.191,564.691,371.503,564.348,369.725z"/>
					</g>
					<g>
						<g>
							<path fill="#EC1D25" d="M533.11,364.211c25.423-6.028,54.44,8.805,26.031,8.046c0,0-26.025,2.063-26.031-2.996
								C533.11,364.211,533.11,364.211,533.11,364.211z"/>
						</g>
						<g>
							<path fill="#EC1D25" d="M538.066,360.711c-16.776,21.683-18.349,56.611-5.662,28.862c0,0,13.856-24.108,9.756-26.484
								C538.066,360.711,538.066,360.711,538.066,360.711z"/>
						</g>
					</g>
				</g>
				<g>
					<g>
						<path fill="#333333" d="M550.647,429.55c1.446,0.732,1.719,2.725,1.61,4.997c-0.098,2.159-1.974,3.829-3.793,2.88
							c-1.466-0.752-2.433-3.878-1.445-5.604C548.063,430.025,549.209,428.804,550.647,429.55z"/>
					</g>
					<g>
						<path fill="#333333" d="M585.183,401.786c-0.479-1.744,0.723-2.949,2.364-3.909c1.582-0.956,4.054,0.041,4.664,2.234
							c0.493,1.746-1.02,4.181-2.896,4.054C587.326,404.043,585.679,403.533,585.183,401.786z"/>
					</g>
					<g>
						<g>
							<path fill="#EC1D25" d="M554.05,399.984c24.403-9.146,54.181,2.324,26.244,4.977c0,0-25.351,5.217-25.805,0.109
								C554.05,399.984,554.05,399.984,554.05,399.984z"/>
						</g>
						<g>
							<path fill="#EC1D25" d="M558.605,395.854c-14.558,23.896-13.018,59.309-3.019,29.8c0,0,11.476-25.991,7.245-27.896
								C558.605,395.854,558.605,395.854,558.605,395.854z"/>
						</g>
					</g>
				</g>
			</g>
			<g clip-path="url(#SVGID_2_)">
				<g>
					<path fill="#EC1D25" d="M87.946,558.835c71.75-53.439,127.029-115.773,164.299-185.261
						c29.846-55.647,48.262-115.958,54.734-179.257C317.998,86.547,290.071,6.188,289.786,5.389l-9.248,3.277
						c0.277,0.783,27.534,79.414,16.632,185.09c-10.044,97.359-55.511,238.358-215.085,357.208L87.946,558.835z"/>
				</g>
				<g>
					<g>
						<g>
							<path fill="#EC1D25" d="M300.927,42.526c-2.954-3.253-2.954-3.253-2.954-3.253"/>
						</g>
						<g>
							<path fill="#EC1D25" d="M281.17,65.326"/>
						</g>
					</g>
				</g>
				<g>
					<g>
						<path fill="#333333" d="M327.378,155.823c-0.787,1.619,0.12,3.155,1.488,4.557c1.307,1.355,3.836,1.009,4.838-1.039
							c0.791-1.624-0.173-4.457-1.976-4.833C329.833,154.124,328.174,154.195,327.378,155.823z"/>
					</g>
					<g>
						<path fill="#333333" d="M282.569,164.282c-0.583-1.526-2.278-1.395-4.209-0.759c-1.873,0.616-3.377,3.195-2.643,5.121
							c0.576,1.539,3.226,1.972,4.735,0.433C282.043,167.444,283.146,165.818,282.569,164.282z"/>
					</g>
					<g>
						<g>
							<path fill="#EC1D25" d="M307.736,138.847c-25.719,12.938-44.252,43.722-19.247,23.741c0,0,24.288-16.272,21.762-20.005
								C307.736,138.847,307.736,138.847,307.736,138.847z"/>
						</g>
						<g>
							<path fill="#EC1D25" d="M301.557,139.656c25.816,4.531,44.634,29.219,19.469,17.426c0,0-24.412-8.318-21.938-12.875
								C301.557,139.656,301.557,139.656,301.557,139.656z"/>
						</g>
					</g>
				</g>
				<g>
					<g>
						<path fill="#333333" d="M325.587,191.31c-0.792,1.61,0.113,3.147,1.483,4.56c1.314,1.35,3.836,1,4.84-1.044
							c0.797-1.617-0.164-4.456-1.973-4.833C328.046,189.614,326.381,189.685,325.587,191.31z"/>
					</g>
					<g>
						<path fill="#333333" d="M280.77,199.769c-0.562-1.525-2.268-1.397-4.201-0.761c-1.866,0.619-3.379,3.189-2.653,5.124
							c0.579,1.535,3.23,1.964,4.74,0.436C280.254,202.928,281.353,201.305,280.77,199.769z"/>
					</g>
					<g>
						<g>
							<path fill="#EC1D25" d="M305.948,174.334c-25.714,12.93-44.257,43.727-19.249,23.74c0,0,24.288-16.268,21.764-20.012
								C305.948,174.334,305.948,174.334,305.948,174.334z"/>
						</g>
						<g>
							<path fill="#EC1D25" d="M299.77,175.146c25.815,4.52,44.627,29.213,19.459,17.422c0,0-24.413-8.314-21.934-12.866
								C299.77,175.146,299.77,175.146,299.77,175.146z"/>
						</g>
					</g>
				</g>
				<g>
					<g>
						<path fill="#333333" d="M320.894,229.827c-0.877,1.562-0.074,3.169,1.199,4.702c1.22,1.485,3.735,1.325,4.839-0.653
							c0.875-1.569,0.102-4.504-1.665-5.021C323.415,228.316,321.776,228.255,320.894,229.827z"/>
					</g>
					<g>
						<path fill="#333333" d="M276.099,234.729c-0.487-1.589-2.174-1.583-4.115-1.105c-1.876,0.47-3.524,2.947-2.916,4.947
							c0.477,1.595,3.066,2.25,4.649,0.816C275.404,237.874,276.586,236.319,276.099,234.729z"/>
					</g>
					<g>
						<g>
							<path fill="#EC1D25" d="M302.483,211.147c-26.201,10.954-46.32,40.464-20.439,22.342c0,0,24.966-14.418,22.699-18.386
								C302.483,211.147,302.483,211.147,302.483,211.147z"/>
						</g>
						<g>
							<path fill="#EC1D25" d="M296.33,211.472c25.243,6.627,42.386,33.006,18.208,19.11c0,0-23.648-10.339-20.929-14.725
								C296.33,211.472,296.33,211.472,296.33,211.472z"/>
						</g>
					</g>
				</g>
				<g>
					<g>
						<path fill="#333333" d="M312.808,270.144c-0.973,1.497-0.293,3.196,0.87,4.859c1.11,1.582,3.599,1.668,4.821-0.226
							c0.968-1.508,0.388-4.527-1.307-5.213C315.393,268.839,313.777,268.634,312.808,270.144z"/>
					</g>
					<g>
						<path fill="#333333" d="M268.29,270.962c-0.358-1.645-2.025-1.8-3.982-1.495c-1.883,0.301-3.678,2.631-3.212,4.709
							c0.376,1.652,2.885,2.55,4.541,1.25C267.396,274.05,268.658,272.612,268.29,270.962z"/>
					</g>
					<g>
						<g>
							<path fill="#EC1D25" d="M295.899,249.637c-26.57,8.613-48.406,36.487-21.659,20.624c0,0,25.599-12.22,23.631-16.444
								C295.899,249.637,295.899,249.637,295.899,249.637z"/>
						</g>
						<g>
							<path fill="#EC1D25" d="M289.808,249.384c24.455,9.008,39.599,37.176,16.676,20.936c0,0-22.621-12.602-19.652-16.758
								C289.808,249.384,289.808,249.384,289.808,249.384z"/>
						</g>
					</g>
				</g>
				<g>
					<g>
						<path fill="#333333" d="M297.701,315.376c-1.169,1.291-0.778,3.15,0.043,5.084c0.8,1.852,3.173,2.488,4.651,0.843
							c1.179-1.287,1.116-4.465-0.41-5.535C300.386,314.649,298.866,314.081,297.701,315.376z"/>
					</g>
					<g>
						<path fill="#333333" d="M254.988,306.324c-0.101-1.745-1.663-2.269-3.583-2.4c-1.853-0.116-3.943,1.848-3.83,4.041
							c0.078,1.75,2.339,3.202,4.132,2.267C253.611,309.251,255.068,308.058,254.988,306.324z"/>
					</g>
					<g>
						<g>
							<path fill="#EC1D25" d="M284.852,290.954c-26.83,2.791-52.233,26.033-24.063,15.978c0,0,26.464-6.638,25.263-11.329
								C284.852,290.954,284.852,290.954,284.852,290.954z"/>
						</g>
						<g>
							<path fill="#EC1D25" d="M279.062,289.356C301,303.868,310.93,335.6,291.633,314.154c0,0-19.615-17.726-16.099-21.257
								C279.062,289.356,279.062,289.356,279.062,289.356z"/>
						</g>
					</g>
				</g>
				<g>
					<g>
						<path fill="#333333" d="M278.814,355.209c-1.313,1.075-1.206,3.038-0.675,5.133c0.506,2.031,2.695,3.116,4.367,1.769
							c1.31-1.092,1.695-4.313,0.391-5.678C281.512,354.999,280.128,354.117,278.814,355.209z"/>
					</g>
					<g>
						<path fill="#333333" d="M238.893,337.818c0.152-1.778-1.292-2.617-3.106-3.118c-1.778-0.478-4.074,1.107-4.275,3.332
							c-0.174,1.785,1.799,3.686,3.673,3.091C237.155,340.491,238.724,339.583,238.893,337.818z"/>
					</g>
					<g>
						<g>
							<path fill="#EC1D25" d="M269.858,328.097c-26.256-2.378-54.038,16.139-25.46,11.455c0,0,26.465-1.571,25.959-6.521
								C269.858,328.097,269.858,328.097,269.858,328.097z"/>
						</g>
						<g>
							<path fill="#EC1D25" d="M264.502,325.359c19.112,18.876,24.219,52.806,8.623,27.434c0,0-16.416-21.651-12.523-24.54
								C264.502,325.359,264.502,325.359,264.502,325.359z"/>
						</g>
					</g>
				</g>
				<g>
					<g>
						<path fill="#333333" d="M260.329,392.803c-1.395,0.9-1.49,2.89-1.18,5.083c0.295,2.122,2.326,3.526,4.086,2.383
							c1.392-0.912,2.102-4.093,0.955-5.656C262.98,392.96,261.714,391.891,260.329,392.803z"/>
					</g>
					<g>
						<path fill="#333333" d="M223.061,369.725c0.326-1.757-0.995-2.793-2.724-3.556c-1.69-0.732-4.088,0.542-4.516,2.761
							c-0.338,1.776,1.388,3.984,3.279,3.641C221.092,372.191,222.718,371.503,223.061,369.725z"/>
					</g>
					<g>
						<g>
							<path fill="#EC1D25" d="M254.298,364.211c-25.424-6.028-54.441,8.805-26.031,8.046c0,0,26.026,2.063,26.031-2.996
								C254.298,364.211,254.298,364.211,254.298,364.211z"/>
						</g>
						<g>
							<path fill="#EC1D25" d="M249.343,360.711c16.774,21.683,18.348,56.611,5.661,28.862c0,0-13.855-24.108-9.754-26.484
								C249.343,360.711,249.343,360.711,249.343,360.711z"/>
						</g>
					</g>
				</g>
				<g>
					<g>
						<path fill="#333333" d="M236.763,429.55c-1.45,0.732-1.721,2.725-1.613,4.997c0.099,2.159,1.976,3.829,3.794,2.88
							c1.465-0.752,2.433-3.878,1.445-5.604C239.346,430.025,238.198,428.804,236.763,429.55z"/>
					</g>
					<g>
						<path fill="#333333" d="M202.225,401.786c0.479-1.744-0.723-2.949-2.363-3.909c-1.583-0.956-4.053,0.041-4.665,2.234
							c-0.493,1.746,1.017,4.181,2.896,4.054C200.081,404.043,201.729,403.533,202.225,401.786z"/>
					</g>
					<g>
						<g>
							<path fill="#EC1D25" d="M233.358,399.984c-24.404-9.146-54.179,2.324-26.243,4.977c0,0,25.348,5.217,25.803,0.109
								C233.358,399.984,233.358,399.984,233.358,399.984z"/>
						</g>
						<g>
							<path fill="#EC1D25" d="M228.8,395.854c14.561,23.896,13.021,59.309,3.021,29.8c0,0-11.475-25.991-7.244-27.896
								C228.8,395.854,228.8,395.854,228.8,395.854z"/>
						</g>
					</g>
				</g>
			</g>
			<g clip-path="url(#SVGID_2_)">
				<g>
					<path fill="#EC1D25" d="M560,575.339c0,0,2-3.51,0-3.51C557,571.829,557,575.339,560,575.339
						C560,575.339,557,575.339,560,575.339z"/>
				</g>
			</g>
		</g>
		<g>
			<path fill="#EC1D25" d="M349.759,389.229c-10.129,0-11.665,15.793-11.665,34.436c0,18.642,1.761,35.339,11.099,35.339
				c9.336,0,11.097-16.246,11.097-34.886C360.291,405.475,359.89,389.229,349.759,389.229z"/>
		</g>
		<g>
			<path fill="#EC1D25" d="M438.071,389.229c-10.133,0-10.534,16.246-10.534,34.889c0,18.64,1.763,34.886,11.1,34.886
				c9.335,0,11.099-16.697,11.099-35.339C449.735,405.021,448.201,389.229,438.071,389.229z"/>
		</g>
	</g>
</g>
<g>
	<path fill="#EC1D25" d="M172.685,126.566l-0.113,0.109l16.423,24.527l-2.987,4.068l-28.202-8.323l-0.071,0.14l13.688,9.161
		l4.751,3.491l3-2.779l3.632,2.667l-9.193,12.512l-3.632-2.668l1.741-3.674l-21.685-15.931l-2.985,2.759l-3.652-2.683l2.363-3.216
		l5.808-7.906l27.921,8.66l0.091-0.125l-16.563-24.119l8.202-11.164l3.652,2.684l-1.756,3.693l21.685,15.933l3-2.78l3.632,2.668
		l-9.193,12.513l-3.631-2.668l1.74-3.674l-4.751-3.491L172.685,126.566z"/>
	<path fill="#EC1D25" d="M184.96,98.595l3.187,3.223l-2.313,3.373l13.759,13.916c1.737,1.758,3.511,2.606,5.32,2.543
		c1.809-0.062,3.537-0.909,5.185-2.537c1.673-1.655,2.556-3.384,2.651-5.193c0.096-1.808-0.732-3.596-2.481-5.367l-13.759-13.916
		l-3.381,2.257l-3.186-3.223l11.041-10.916l3.186,3.223l-2.312,3.374l13.758,13.916c2.958,2.99,4.252,6.272,3.887,9.845
		c-0.368,3.572-2.149,6.94-5.347,10.102c-3.187,3.15-6.562,4.882-10.126,5.196c-3.564,0.313-6.824-1.025-9.782-4.017l-13.758-13.915
		l-3.382,2.256l-3.186-3.222l2.838-2.807l5.346-5.285L184.96,98.595z"/>
	<path fill="#EC1D25" d="M233.31,73.151l-4.472,3.434l-3.912-3.488c-0.769,0.071-1.745,0.366-2.926,0.884
		c-1.182,0.519-2.332,1.206-3.448,2.063c-1.634,1.255-2.633,2.569-2.996,3.941c-0.364,1.373-0.127,2.604,0.709,3.693
		c0.774,1.007,1.875,1.477,3.305,1.407c1.428-0.07,3.564-0.623,6.406-1.657c3.98-1.607,7.395-2.313,10.239-2.118
		c2.845,0.196,5.203,1.513,7.074,3.949c1.957,2.545,2.49,5.328,1.606,8.345c-0.886,3.018-2.977,5.792-6.271,8.322
		c-2.354,1.81-4.77,3.068-7.243,3.779c-2.474,0.71-4.852,0.891-7.133,0.542l-4.769-6.208l4.616-3.544l3.879,3.741
		c0.975,0.031,2.1-0.189,3.374-0.658c1.274-0.47,2.544-1.191,3.81-2.164c1.633-1.255,2.619-2.542,2.958-3.863
		c0.339-1.321,0.08-2.54-0.777-3.656c-0.878-1.144-1.989-1.751-3.333-1.823c-1.342-0.072-3.264,0.364-5.762,1.31
		c-4.311,1.687-7.91,2.524-10.798,2.513c-2.886-0.012-5.267-1.236-7.139-3.673c-1.85-2.409-2.342-5.164-1.476-8.265
		c0.865-3.099,2.828-5.856,5.887-8.271c2.286-1.757,4.636-3.009,7.048-3.757c2.413-0.749,4.703-1.036,6.871-0.861L233.31,73.151z"/>
	<path fill="#EC1D25" d="M231.715,65.017l-2.312-3.898l13.357-7.917l2.31,3.898l-3.061,2.712l5.514,9.304l13.157-7.799l-5.514-9.302
		l-3.85,1.382l-2.311-3.898l3.455-2.047l6.446-3.821l3.455-2.048l2.312,3.898l-3.062,2.713l13.72,23.147l3.85-1.384l2.296,3.876
		l-13.355,7.917l-2.298-3.875l3.063-2.713l-5.252-8.86l-13.157,7.799l5.251,8.86l3.849-1.383l2.298,3.876l-13.357,7.917
		l-2.297-3.876l3.04-2.7l-13.72-23.146L231.715,65.017z"/>
	<path fill="#EC1D25" d="M281.575,33.542c3.927-1.642,7.382-2.031,10.368-1.168c2.984,0.864,5.14,2.879,6.465,6.046
		c0.729,1.742,0.893,3.45,0.496,5.124c-0.398,1.673-1.334,3.283-2.809,4.831c2.295-0.252,4.183,0.134,5.665,1.161
		c1.481,1.028,2.654,2.58,3.522,4.654l0.735,1.757c0.317,0.761,0.714,1.288,1.191,1.582c0.478,0.294,1.08,0.335,1.81,0.123
		l0.905-0.239l1.749,4.18l-3.588,1.5c-2.264,0.947-4.109,1.003-5.538,0.167c-1.43-0.835-2.547-2.218-3.355-4.151l-0.825-1.972
		c-0.702-1.678-1.701-2.809-2.996-3.394c-1.295-0.583-2.77-0.557-4.42,0.077l-5.676,2.374l3.814,9.122l4.004-0.837l1.737,4.157
		l-14.322,5.991l-1.74-4.156l3.383-2.254l-10.382-24.823l-3.98,0.827l-1.748-4.18l3.683-1.541L281.575,33.542z M283.036,50.849
		l4.799-2.007c1.931-0.809,3.207-1.826,3.83-3.053c0.621-1.228,0.607-2.617-0.041-4.169c-0.649-1.552-1.646-2.591-2.992-3.116
		c-1.346-0.526-2.954-0.398-4.822,0.383l-4.917,2.058L283.036,50.849z"/>
	<path fill="#EC1D25" d="M338.437,35.174c1.456,5.298,1.145,10.092-0.933,14.383c-2.079,4.293-5.567,7.111-10.467,8.458
		c-4.882,1.342-9.301,0.697-13.257-1.936c-3.954-2.634-6.661-6.599-8.116-11.895l-0.15-0.546c-1.447-5.265-1.15-10.045,0.891-14.345
		c2.04-4.299,5.501-7.12,10.383-8.462c4.9-1.347,9.346-0.7,13.339,1.941c3.992,2.641,6.712,6.593,8.159,11.856L338.437,35.174z
		 M331.047,36.565c-1.028-3.741-2.641-6.565-4.838-8.471c-2.197-1.906-4.82-2.439-7.864-1.602c-3.046,0.836-4.999,2.62-5.859,5.349
		c-0.861,2.729-0.773,5.98,0.265,9.754l0.163,0.596c1.047,3.808,2.646,6.666,4.8,8.574s4.745,2.448,7.773,1.615
		c3.063-0.842,5.044-2.637,5.944-5.386c0.9-2.748,0.827-6.026-0.221-9.833L331.047,36.565z"/>
	<path fill="#EC1D25" d="M373.793,30.158c0.755,5.442-0.177,10.155-2.793,14.14c-2.619,3.987-6.444,6.329-11.477,7.028
		c-5.016,0.697-9.314-0.516-12.894-3.641c-3.579-3.125-5.746-7.409-6.503-12.849l-0.078-0.562
		c-0.751-5.407,0.165-10.109,2.747-14.108c2.58-3.998,6.38-6.345,11.395-7.042c5.033-0.7,9.356,0.52,12.973,3.657
		c3.617,3.136,5.801,7.409,6.551,12.816L373.793,30.158z M366.285,30.578c-0.533-3.842-1.766-6.852-3.697-9.027
		c-1.932-2.174-4.461-3.045-7.59-2.61c-3.129,0.435-5.296,1.949-6.505,4.543c-1.208,2.594-1.543,5.83-1.004,9.707l0.085,0.611
		c0.542,3.91,1.758,6.953,3.646,9.125c1.887,2.173,4.387,3.043,7.498,2.61c3.146-0.437,5.343-1.959,6.592-4.569
		c1.25-2.608,1.603-5.867,1.06-9.778L366.285,30.578z"/>
	<path fill="#EC1D25" d="M411.517,20.836l-0.155-0.028L400.93,48.42l-5.046-0.072l-9.599-27.792l-0.155,0.023l0.488,16.461
		l-0.083,5.896l4.004,0.829l-0.063,4.505l-15.524-0.22l0.063-4.506l4.001-0.716l0.38-26.905l-3.979-0.829l0.063-4.531l3.991,0.057
		l9.809,0.139l9.162,27.761l0.154,0.002l10.021-27.489l13.852,0.196l-0.064,4.531l-4.028,0.716l-0.38,26.905l4.005,0.829
		l-0.063,4.505l-15.524-0.219l0.063-4.506l4.002-0.716l0.082-5.896L411.517,20.836z"/>
	<path fill="#EC1D25" d="M431.687,45.894l4.066,0.063l5.528-26.333l-3.745-1.577l0.932-4.434l14.994,3.149l-0.935,4.435
		l-3.887-0.027l-2.058,9.802l3.198,0.672l9.212-8.773l-2.104-0.759l0.931-4.435l14.541,3.054l-0.933,4.436l-4.123-0.156
		l-11.553,10.15l7.088,16.617l3.548,1.402l-0.928,4.41l-14.54-3.054l0.925-4.409l2.333,0.174l-4.827-12.09l-4.107-0.863
		l-2.134,10.155l3.572,1.54l-0.928,4.41l-14.993-3.149L431.687,45.894z"/>
	<path fill="#EC1D25" d="M474.044,26.312l1.348-4.327l14.823,4.62l-1.348,4.326l-4.065-0.457l-8.005,25.688l3.604,1.933
		l-1.341,4.302l-14.823-4.621l1.342-4.301l4.064,0.458l8.006-25.688L474.044,26.312z"/>
	<path fill="#EC1D25" d="M528.668,42.206l-1.776,4.169l-4-0.864L510.273,75.12l-6.895-2.938l-4.033-29.15l-0.152-0.037
		l-7.814,18.333l3.393,2.286l-1.766,4.145l-14.285-6.088l1.767-4.146l3.974,0.855l10.552-24.752l-3.368-2.276l1.777-4.169
		l3.672,1.565l6.915,2.948l4.035,29.149l0.152,0.037l7.802-18.311l-3.392-2.285l1.777-4.169l10.589,4.513L528.668,42.206z"/>
	<path fill="#EC1D25" d="M541.336,88.4c-1.661,0.414-3.742,0.445-6.246,0.093c-2.503-0.354-5.292-1.438-8.366-3.255
		c-4.357-2.576-7.043-6.131-8.053-10.666c-1.009-4.534-0.133-9.136,2.625-13.807l0.655-1.108c2.855-4.833,6.526-7.967,11.015-9.403
		c4.487-1.436,8.902-0.87,13.248,1.697c2.527,1.493,4.597,3.261,6.214,5.302c1.616,2.041,2.713,4.159,3.29,6.354l-3.84,6.495
		l-4.789-2.829l1.646-4.86c-0.294-0.852-0.834-1.715-1.624-2.59c-0.788-0.875-1.812-1.683-3.068-2.426
		c-2.822-1.667-5.633-1.922-8.43-0.765c-2.799,1.159-5.192,3.423-7.184,6.792l-0.683,1.153c-1.937,3.28-2.717,6.354-2.336,9.22
		c0.378,2.867,2.018,5.155,4.914,6.867c1.3,0.769,2.419,1.28,3.355,1.535c0.936,0.254,1.722,0.369,2.354,0.344l3.234-5.476
		l-4.4-3.08l2.685-4.543l11.107,6.562L541.336,88.4z"/>
	<path fill="#EC1D25" d="M575.445,72.476c3.63,2.8,5.726,6.266,6.288,10.397c0.563,4.131-0.556,8.011-3.355,11.64l-3.793,4.912
		c-2.809,3.643-6.278,5.708-10.408,6.197c-4.129,0.489-8.008-0.667-11.635-3.467l-13.353-10.304l2.755-3.567l3.629,1.828
		l16.442-21.302l-2.689-3.049l2.77-3.588l3.158,2.438L575.445,72.476z M567.667,73.79l-15.842,20.527l3.934,3.036
		c2.134,1.646,4.361,2.216,6.683,1.71c2.322-0.507,4.379-1.922,6.172-4.246l3.824-4.954c1.772-2.296,2.609-4.632,2.512-7.006
		c-0.1-2.374-1.215-4.384-3.349-6.031L567.667,73.79z"/>
	<path fill="#EC1D25" d="M602.18,122.753c-3.887,3.883-8.207,5.982-12.966,6.295c-4.76,0.314-8.934-1.325-12.524-4.92
		c-3.581-3.581-5.203-7.743-4.866-12.482c0.335-4.74,2.445-9.051,6.331-12.934l0.399-0.4c3.862-3.86,8.165-5.963,12.911-6.314
		c4.747-0.352,8.909,1.265,12.49,4.846c3.589,3.595,5.224,7.78,4.901,12.557c-0.323,4.776-2.415,9.093-6.276,12.952L602.18,122.753z
		 M597.318,117.016c2.744-2.742,4.403-5.54,4.976-8.392c0.57-2.853-0.26-5.396-2.493-7.63c-2.233-2.233-4.747-3.05-7.546-2.451
		c-2.798,0.6-5.582,2.284-8.351,5.05l-0.437,0.437c-2.793,2.792-4.485,5.594-5.083,8.41c-0.594,2.815,0.217,5.334,2.438,7.556
		c2.246,2.246,4.785,3.083,7.621,2.506c2.832-0.576,5.646-2.258,8.439-5.049L597.318,117.016z"/>
	<path fill="#EC1D25" d="M632.368,147.252l-0.07-0.139l-28.319,8.317l-2.986-4.069l16.391-24.41l-0.111-0.11l-12.842,10.312
		l-4.756,3.487l1.754,3.696l-3.634,2.665l-9.182-12.521l3.634-2.665l2.982,2.761l21.698-15.913l-1.736-3.676l3.652-2.68l2.362,3.218
		l5.802,7.911l-16.63,24.043l0.091,0.125l27.975-8.574l8.191,11.171l-3.653,2.68l-3-2.782l-21.697,15.912l1.754,3.696l-3.634,2.666
		l-9.183-12.521l3.634-2.664l2.983,2.762l4.754-3.487L632.368,147.252z"/>
</g>
<g>
	<path fill="#EC1D25" d="M293.68,543.961c4.046,1.758,6.86,3.918,8.441,6.478c1.583,2.561,1.694,5.406,0.332,8.539
		c-0.691,1.59-1.73,2.827-3.116,3.712c-1.386,0.886-3.02,1.296-4.898,1.227c1.871,1.337,3.005,2.954,3.406,4.851
		c0.403,1.896,0.189,3.798-0.638,5.702c-1.432,3.292-3.602,5.309-6.509,6.058c-2.907,0.747-6.353,0.256-10.336-1.477l-16.908-7.349
		l1.797-4.134l3.969,0.883l10.728-24.676l-3.352-2.3l1.806-4.155l3.661,1.59L293.68,543.961z M280.622,561.081L276.311,571
		l6.351,2.761c1.828,0.794,3.394,1.003,4.699,0.626c1.305-0.379,2.296-1.346,2.975-2.906c0.733-1.684,0.883-3.149,0.45-4.395
		c-0.431-1.245-1.528-2.25-3.292-3.016L280.622,561.081z M282.695,556.312l4.958,2.155c1.843,0.802,3.423,1.039,4.744,0.715
		c1.32-0.324,2.295-1.21,2.926-2.658c0.691-1.59,0.701-2.981,0.03-4.171c-0.672-1.189-1.999-2.216-3.982-3.079l-4.723-2.053
		L282.695,556.312z"/>
	<path fill="#EC1D25" d="M297.127,581.367l2.679,0.382l20.107-28.08l7.39,2.163l1.712,34.467l2.462,1.125l-1.267,4.324l-12.257-3.59
		l1.266-4.324l2.626,0.287l-0.135-5.406l-11.663-3.415l-3.03,4.479l2.367,1.175l-1.267,4.325l-12.257-3.588L297.127,581.367z
		 M313.309,574.486l8.253,2.416l-0.341-13.863l-0.148-0.044L313.309,574.486z"/>
	<path fill="#EC1D25" d="M365.618,575.76l-5.563-0.927l-0.119-5.241c-0.577-0.513-1.458-1.023-2.643-1.535
		c-1.186-0.51-2.472-0.881-3.861-1.111c-2.031-0.338-3.673-0.173-4.924,0.498c-1.251,0.67-1.99,1.684-2.215,3.037
		c-0.209,1.254,0.199,2.379,1.225,3.377c1.026,0.996,2.887,2.181,5.583,3.551c3.892,1.813,6.737,3.828,8.535,6.042
		s2.444,4.836,1.942,7.865c-0.527,3.167-2.196,5.457-5.008,6.868c-2.81,1.411-6.264,1.777-10.36,1.095
		c-2.93-0.487-5.498-1.394-7.705-2.717c-2.208-1.324-3.962-2.939-5.264-4.844l1.286-7.722l5.739,0.955l-0.088,5.389
		c0.644,0.733,1.572,1.405,2.785,2.017c1.211,0.61,2.605,1.046,4.181,1.309c2.031,0.338,3.646,0.181,4.842-0.474
		c1.196-0.653,1.91-1.675,2.141-3.063c0.237-1.422-0.077-2.649-0.94-3.68c-0.864-1.031-2.495-2.137-4.891-3.319
		c-4.174-1.999-7.242-4.06-9.204-6.178c-1.961-2.119-2.691-4.694-2.186-7.724c0.499-2.998,2.176-5.237,5.032-6.722
		c2.856-1.481,6.211-1.929,10.064-1.34c2.845,0.474,5.363,1.337,7.556,2.589c2.193,1.253,3.966,2.731,5.318,4.435L365.618,575.76z"
		/>
	<path fill="#EC1D25" d="M390.493,586.258l-12.677-0.662l-0.558,10.697l12.084,0.63l0.568-4.456l5.709,0.298l-0.534,10.232
		l-29.622-1.545l0.235-4.499l4.026-0.563l1.4-26.871l-3.945-0.979l0.236-4.524l3.986,0.207l25.585,1.334l-0.536,10.26l-5.761-0.3
		l-0.099-4.491l-11.983-0.626l-0.492,9.411l12.678,0.661L390.493,586.258z"/>
	<path fill="#EC1D25" d="M413.905,564.556c4.402-0.293,7.893,0.336,10.474,1.885c2.58,1.549,3.984,4.027,4.21,7.436
		c0.116,1.729-0.24,3.306-1.065,4.729c-0.827,1.422-2.091,2.533-3.79,3.336c2.273,0.329,4.025,1.245,5.252,2.746
		c1.227,1.502,1.909,3.288,2.047,5.36c0.237,3.581-0.764,6.369-3.005,8.368c-2.241,1.998-5.529,3.143-9.863,3.43l-18.394,1.223
		l-0.3-4.496l3.932-1.035l-1.784-26.849l-4.035-0.506l-0.301-4.522l3.982-0.264L413.905,564.556z M409.809,580.568l5.396-0.357
		c2.004-0.134,3.517-0.646,4.542-1.542c1.024-0.894,1.484-2.128,1.38-3.703c-0.116-1.729-0.744-2.97-1.887-3.722
		c-1.142-0.747-2.793-1.052-4.95-0.908l-5.14,0.343L409.809,580.568z M410.153,585.76l0.718,10.79l6.911-0.46
		c1.986-0.131,3.475-0.665,4.462-1.6c0.987-0.933,1.424-2.249,1.313-3.945c-0.123-1.832-0.661-3.202-1.616-4.112
		c-0.956-0.907-2.392-1.297-4.31-1.17L410.153,585.76z"/>
	<path fill="#EC1D25" d="M434.137,596.213l2.555-0.893l4.937-34.182l7.556-1.477l17.376,29.817l2.702-0.135l0.865,4.422
		l-12.534,2.451l-0.864-4.423l2.463-0.952l-2.605-4.739l-11.928,2.332l-0.629,5.37l2.641-0.043l0.865,4.421l-12.534,2.453
		L434.137,596.213z M445.338,582.662l8.441-1.65l-6.68-12.153l-0.152,0.03L445.338,582.662z"/>
	<path fill="#EC1D25" d="M473.123,592.752l-1.388-4.289l3.56-1.962l-8.275-25.603l-4.035,0.492l-1.395-4.313l3.797-1.227
		l7.155-2.313l3.822-1.236l1.393,4.313l-3.584,1.97l8.127,25.137l10.07-3.254l-1.107-4.596l5.463-1.766l3.225,9.972L473.123,592.752
		z"/>
	<path fill="#EC1D25" d="M502.888,582.939l-1.833-4.117l3.332-2.328l-10.948-24.58l-3.959,0.918l-1.845-4.139l3.646-1.625
		l6.867-3.059l3.67-1.634l1.844,4.14l-3.355,2.341l10.748,24.132l9.668-4.307l-1.589-4.449l5.246-2.338l4.264,9.574L502.888,582.939
		z"/>
</g>
</svg>
