<?xml version="1.0" encoding="utf-8"?>
<!-- Generator: Adobe Illustrator 16.0.0, SVG Export Plug-In . SVG Version: 6.00 Build 0)  -->
<!DOCTYPE svg PUBLIC "-//W3C//DTD SVG 1.1//EN" "http://www.w3.org/Graphics/SVG/1.1/DTD/svg11.dtd">
<svg version="1.1" id="Layer_1" xmlns="http://www.w3.org/2000/svg" xmlns:xlink="http://www.w3.org/1999/xlink" x="0px" y="0px"
	 width="792px" height="612px" viewBox="0 0 792 612" enable-background="new 0 0 792 612" xml:space="preserve">
<g>
	<path fill="#FFFFFF" d="M546.961,555.739c-29.412,31.843-95.664,43.351-150.959,43.351c-55.305,0-121.545-11.508-150.96-43.351
		c-21.898-23.702-26.596-68.343-26.065-97.563c11.842-16.58,66.176-61.328,177.025-61.328c110.85,0,165.182,44.748,177.023,61.328
		C573.556,487.396,568.858,532.036,546.961,555.739z"/>
	<g>
		<g>
			<g>
				<defs>
					<path id="SVGID_1_" d="M395.998,1.304C183.438,1.304,90.3,207.205,90.3,319.855c0,112.651,69.273,157.312,121.643,176.629
						c7.029,82.759,70.916,114.212,184.057,114.212c113.137,0,177.023-31.453,184.053-114.212
						c52.37-19.317,121.648-63.978,121.648-176.629C701.7,207.205,608.554,1.304,395.998,1.304z M539.761,551.36
						c-28.01,30.325-91.104,41.284-143.765,41.284c-52.669,0-115.752-10.959-143.766-41.284
						c-20.854-22.573-25.328-65.086-24.823-92.914c11.278-15.79,63.022-58.405,168.588-58.405s157.31,42.615,168.586,58.405
						C565.088,486.274,560.614,528.786,539.761,551.36z"/>
				</defs>
				<clipPath id="SVGID_2_">
					<use xlink:href="#SVGID_1_"  overflow="visible"/>
				</clipPath>
				<g clip-path="url(#SVGID_2_)">
					<g>
						<g enable-background="new    ">
							<path fill="#FFFFFF" d="M331.992,424.367c-14.684,0-16.907,22.889-16.907,49.913c0,27.017,2.553,51.222,16.089,51.222
								c13.533,0,16.085-23.546,16.085-50.565C347.259,447.914,346.677,424.367,331.992,424.367z"/>
							<path fill="#EC1D25" d="M331.174,542.055c-32.642,0-32.642-45.779-32.642-67.774c0-21.574,0-66.469,33.46-66.469
								c31.822,0,31.822,38.796,31.822,67.124C363.814,496.719,363.814,542.055,331.174,542.055z"/>
						</g>
						<g enable-background="new    ">
							<path fill="#FFFFFF" d="M395.998-0.152c-212.56,0-305.698,205.9-305.698,318.55c0,112.649,69.278,157.31,121.643,176.629
								c7.029,82.76,70.916,114.211,184.057,114.211c113.137,0,177.023-31.452,184.053-114.211
								c52.37-19.319,121.648-63.979,121.648-176.629C701.699,205.748,608.554-0.152,395.998-0.152z M538.745,548.886
								c-28.013,30.325-90.085,36.955-142.747,36.955c-52.664,0-114.737-6.63-142.749-36.955
								c-20.854-22.578-26.34-64.071-25.841-91.896c11.281-15.792,63.022-58.407,168.589-58.407
								c105.565,0,157.309,42.615,168.585,58.407C565.088,484.814,559.598,526.308,538.745,548.886z"/>
							<path fill="#EC1D25" d="M395.998,625.791c-78.88,0-184.016-12.605-199.367-118.979
								C116.183,473.56,73.746,408.621,73.746,318.397c0-53.624,20.1-137.354,76.518-211.539
								C193.129,50.488,270.562-16.706,395.998-16.706c125.435,0,202.866,67.194,245.732,123.565
								c56.422,74.184,76.521,157.916,76.521,211.539c0,90.225-42.438,155.167-122.892,188.416
								C580.013,613.186,474.873,625.791,395.998,625.791z M243.95,462.939c0.36,25.3,6.058,58.042,21.458,74.717
								c13.332,14.428,46.809,31.632,130.59,31.632c83.776,0,117.259-17.204,130.587-31.632
								c15.405-16.679,21.104-49.424,21.458-74.717c-14.648-15.566-63.199-47.806-152.045-47.806
								C307.162,415.134,258.604,447.37,243.95,462.939z M395.998,16.4c-111.87,0-181.048,60.088-219.381,110.498
								c-51.493,67.711-69.763,145.478-69.763,191.5c0,77.503,35.194,130.865,104.63,158.716
								c-0.666-8.827-0.703-16.049-0.625-20.424l0.093-5.139l2.988-4.184c16.145-22.601,74.969-65.34,182.059-65.34
								c107.096,0,165.916,42.739,182.059,65.34l2.982,4.184l0.095,5.136c0.081,4.378,0.045,11.596-0.622,20.427
								c69.441-27.851,104.635-81.213,104.635-158.716c0-46.022-18.269-123.789-69.764-191.5
								C577.045,76.489,507.864,16.4,395.998,16.4z"/>
						</g>
						<g enable-background="new    ">
							<path fill="#FFFFFF" d="M460,424.367c-14.687,0-15.27,23.548-15.27,50.568s2.555,50.565,16.088,50.565
								c13.532,0,16.089-24.205,16.089-51.222C476.908,447.255,474.684,424.367,460,424.367z"/>
							<path fill="#EC1D25" d="M460.819,542.055c-32.64,0-32.64-45.336-32.64-67.119c0-28.328,0-67.124,31.82-67.124
								c33.461,0,33.461,44.895,33.461,66.469C493.461,496.275,493.461,542.055,460.819,542.055z"/>
						</g>
					</g>
				</g>
			</g>
			<g>
				<defs>
					<path id="SVGID_3_" d="M395.998,1.304C183.438,1.304,90.3,207.205,90.3,319.855c0,112.651,69.273,157.312,121.643,176.629
						c7.029,82.759,70.916,114.212,184.057,114.212c113.137,0,177.023-31.453,184.053-114.212
						c52.37-19.317,121.648-63.978,121.648-176.629C701.7,207.205,608.554,1.304,395.998,1.304z M539.761,551.36
						c-28.01,30.325-91.104,41.284-143.765,41.284c-52.669,0-115.752-10.959-143.766-41.284
						c-20.854-22.573-25.328-65.086-24.823-92.914c11.278-15.79,63.022-58.405,168.588-58.405s157.31,42.615,168.586,58.405
						C565.088,486.274,560.614,528.786,539.761,551.36z"/>
				</defs>
				<clipPath id="SVGID_4_">
					<use xlink:href="#SVGID_3_"  overflow="visible"/>
				</clipPath>
				<g clip-path="url(#SVGID_4_)">
					<g>
						<path fill="#EC1D25" d="M838.883,673.517c-104-77.459-184.13-167.812-238.151-268.531
							c-43.258-80.659-69.952-168.081-79.335-259.832c-15.971-156.211,24.509-272.689,24.918-273.849l13.407,4.75
							c-0.4,1.134-39.908,115.109-24.106,268.286c14.56,141.12,80.459,345.497,311.765,517.768L838.883,673.517z"/>
					</g>
					<g>
						<g>
							<g>
								<path fill="#EC1D25" d="M530.171-74.865c4.281-4.717,4.281-4.717,4.281-4.717"/>
							</g>
							<g>
								<path fill="#EC1D25" d="M558.808-41.818"/>
							</g>
						</g>
					</g>
					<g>
						<g>
							<path fill="#333333" d="M491.828,89.358c1.144,2.346-0.171,4.572-2.156,6.604c-1.896,1.964-5.558,1.461-7.011-1.506
								c-1.146-2.354,0.248-6.459,2.863-7.004C488.271,86.894,490.675,86.998,491.828,89.358z"/>
						</g>
						<g>
							<path fill="#333333" d="M556.779,101.618c0.847-2.213,3.303-2.021,6.103-1.099c2.714,0.892,4.894,4.631,3.83,7.422
								c-0.836,2.23-4.675,2.858-6.861,0.627C557.541,106.201,555.942,103.845,556.779,101.618z"/>
						</g>
						<g>
							<g>
								<path fill="#EC1D25" d="M520.3,64.75c37.277,18.754,64.142,63.375,27.899,34.412c0,0-35.208-23.586-31.545-28.997
									C520.3,64.75,520.3,64.75,520.3,64.75z"/>
							</g>
							<g>
								<path fill="#EC1D25" d="M529.252,65.925c-37.415,6.567-64.693,42.351-28.214,25.258c0,0,35.382-12.057,31.796-18.662
									C529.252,65.925,529.252,65.925,529.252,65.925z"/>
							</g>
						</g>
					</g>
					<g>
						<g>
							<path fill="#333333" d="M494.424,140.796c1.146,2.333-0.165,4.562-2.148,6.609c-1.906,1.957-5.562,1.45-7.018-1.515
								c-1.154-2.344,0.239-6.459,2.859-7.004C490.861,138.337,493.276,138.438,494.424,140.796z"/>
						</g>
						<g>
							<path fill="#333333" d="M559.386,153.056c0.814-2.211,3.288-2.025,6.093-1.103c2.701,0.897,4.896,4.623,3.846,7.426
								c-0.84,2.224-4.682,2.848-6.871,0.632C560.134,157.636,558.542,155.284,559.386,153.056z"/>
						</g>
						<g>
							<g>
								<path fill="#EC1D25" d="M522.895,116.188c37.27,18.743,64.146,63.382,27.898,34.412c0,0-35.202-23.581-31.545-29.008
									C522.895,116.188,522.895,116.188,522.895,116.188z"/>
							</g>
							<g>
								<path fill="#EC1D25" d="M531.852,117.367c-37.421,6.551-64.691,42.344-28.209,25.253c0,0,35.385-12.051,31.791-18.648
									C531.852,117.367,531.852,117.367,531.852,117.367z"/>
							</g>
						</g>
					</g>
					<g>
						<g>
							<path fill="#333333" d="M501.229,196.625c1.27,2.264,0.107,4.593-1.739,6.816c-1.768,2.152-5.413,1.919-7.016-0.947
								c-1.269-2.273-0.146-6.528,2.412-7.277C497.576,194.435,499.947,194.347,501.229,196.625z"/>
						</g>
						<g>
							<path fill="#333333" d="M566.158,203.731c0.703-2.305,3.151-2.295,5.967-1.603c2.717,0.681,5.104,4.271,4.224,7.17
								c-0.691,2.312-4.441,3.26-6.737,1.183C567.164,208.288,565.452,206.035,566.158,203.731z"/>
						</g>
						<g>
							<g>
								<path fill="#EC1D25" d="M527.914,169.55c37.978,15.877,67.145,58.651,29.628,32.385c0,0-36.188-20.9-32.903-26.651
									C527.914,169.55,527.914,169.55,527.914,169.55z"/>
							</g>
							<g>
								<path fill="#EC1D25" d="M536.835,170.019c-36.591,9.605-61.439,47.842-26.395,27.7c0,0,34.279-14.987,30.339-21.344
									C536.835,170.019,536.835,170.019,536.835,170.019z"/>
							</g>
						</g>
					</g>
					<g>
						<g>
							<path fill="#333333" d="M512.947,255.063c1.411,2.169,0.428,4.632-1.257,7.042c-1.612,2.292-5.218,2.418-6.99-0.328
								c-1.403-2.185-0.562-6.563,1.896-7.557C509.202,253.172,511.544,252.875,512.947,255.063z"/>
						</g>
						<g>
							<path fill="#333333" d="M577.478,256.249c0.518-2.383,2.937-2.609,5.772-2.166c2.729,0.437,5.329,3.813,4.654,6.825
								c-0.546,2.395-4.18,3.696-6.581,1.811C578.772,260.726,576.945,258.641,577.478,256.249z"/>
						</g>
						<g>
							<g>
								<path fill="#EC1D25" d="M537.461,225.339c38.511,12.484,70.16,52.887,31.389,29.894c0,0-37.104-17.711-34.249-23.834
									C537.461,225.339,537.461,225.339,537.461,225.339z"/>
							</g>
							<g>
								<path fill="#EC1D25" d="M546.287,224.971c-35.447,13.057-57.396,53.887-24.173,30.348c0,0,32.791-18.267,28.485-24.292
									C546.287,224.971,546.287,224.971,546.287,224.971z"/>
							</g>
						</g>
					</g>
					<g>
						<g>
							<path fill="#333333" d="M534.849,320.627c1.692,1.871,1.124,4.566-0.065,7.369c-1.159,2.685-4.602,3.605-6.74,1.222
								c-1.713-1.866-1.62-6.474,0.594-8.022C530.952,319.574,533.158,318.75,534.849,320.627z"/>
						</g>
						<g>
							<path fill="#333333" d="M596.757,307.506c0.146-2.529,2.412-3.288,5.192-3.479c2.689-0.168,5.72,2.676,5.555,5.856
								c-0.115,2.537-3.394,4.643-5.99,3.286C598.751,311.748,596.641,310.018,596.757,307.506z"/>
						</g>
						<g>
							<g>
								<path fill="#EC1D25" d="M553.47,285.227c38.891,4.045,75.712,37.734,34.88,23.16c0,0-38.359-9.623-36.62-16.422
									C553.47,285.227,553.47,285.227,553.47,285.227z"/>
							</g>
							<g>
								<path fill="#EC1D25" d="M561.863,282.911c-31.802,21.035-46.192,67.029-18.221,35.945c0,0,28.432-25.694,23.332-30.812
									C561.863,282.911,561.863,282.911,561.863,282.911z"/>
							</g>
						</g>
					</g>
					<g>
						<g>
							<path fill="#333333" d="M562.223,378.365c1.897,1.56,1.748,4.403,0.979,7.439c-0.731,2.943-3.906,4.518-6.328,2.563
								c-1.9-1.582-2.461-6.25-0.568-8.229C558.311,378.06,560.315,376.783,562.223,378.365z"/>
						</g>
						<g>
							<path fill="#333333" d="M620.089,353.158c-0.223-2.578,1.866-3.795,4.503-4.521c2.576-0.691,5.901,1.605,6.195,4.831
								c0.251,2.587-2.608,5.342-5.324,4.479C622.604,357.029,620.329,355.716,620.089,353.158z"/>
						</g>
						<g>
							<g>
								<path fill="#EC1D25" d="M575.205,339.064c38.057-3.445,78.326,23.393,36.904,16.605c0,0-38.361-2.278-37.631-9.452
									C575.205,339.064,575.205,339.064,575.205,339.064z"/>
							</g>
							<g>
								<path fill="#EC1D25" d="M582.97,335.098c-27.704,27.359-35.105,76.541-12.501,39.764c0,0,23.795-31.384,18.148-35.568
									C582.97,335.098,582.97,335.098,582.97,335.098z"/>
							</g>
						</g>
					</g>
					<g>
						<g>
							<path fill="#333333" d="M589.017,432.855c2.021,1.307,2.158,4.189,1.712,7.368c-0.431,3.075-3.375,5.112-5.925,3.455
								c-2.019-1.324-3.048-5.935-1.385-8.199C585.174,433.084,587.011,431.533,589.017,432.855z"/>
						</g>
						<g>
							<path fill="#333333" d="M643.036,399.404c-0.473-2.546,1.442-4.049,3.951-5.154c2.448-1.062,5.921,0.785,6.544,4.004
								c0.488,2.575-2.014,5.774-4.753,5.274C645.891,402.979,643.533,401.981,643.036,399.404z"/>
						</g>
						<g>
							<g>
								<path fill="#EC1D25" d="M597.758,391.412c36.852-8.738,78.91,12.764,37.731,11.662c0,0-37.725,2.989-37.731-4.343
									C597.758,391.412,597.758,391.412,597.758,391.412z"/>
							</g>
							<g>
								<path fill="#EC1D25" d="M604.941,386.339c-24.315,31.43-26.596,82.059-8.207,41.837c0,0,20.086-34.945,14.142-38.391
									C604.941,386.339,604.941,386.339,604.941,386.339z"/>
							</g>
						</g>
					</g>
					<g>
						<g>
							<path fill="#333333" d="M623.178,486.121c2.097,1.061,2.49,3.948,2.336,7.241c-0.146,3.132-2.862,5.552-5.499,4.176
								c-2.124-1.091-3.526-5.621-2.094-8.122C619.432,486.81,621.093,485.04,623.178,486.121z"/>
						</g>
						<g>
							<path fill="#333333" d="M673.235,445.877c-0.691-2.529,1.05-4.275,3.427-5.665c2.295-1.386,5.877,0.059,6.763,3.237
								c0.714,2.528-1.479,6.062-4.199,5.877C676.344,449.146,673.955,448.408,673.235,445.877z"/>
						</g>
						<g>
							<g>
								<path fill="#EC1D25" d="M628.111,443.267c35.371-13.258,78.532,3.368,38.04,7.214c0,0-36.745,7.561-37.403,0.157
									C628.111,443.267,628.111,443.267,628.111,443.267z"/>
							</g>
							<g>
								<path fill="#EC1D25" d="M634.715,437.279c-21.104,34.639-18.871,85.968-4.377,43.195c0,0,16.633-37.674,10.501-40.434
									C634.715,437.279,634.715,437.279,634.715,437.279z"/>
							</g>
						</g>
					</g>
				</g>
			</g>
			<g>
				<defs>
					<path id="SVGID_5_" d="M395.998,1.304C183.438,1.304,90.3,207.205,90.3,319.855c0,112.651,69.273,157.312,121.643,176.629
						c7.029,82.759,70.916,114.212,184.057,114.212c113.137,0,177.023-31.453,184.053-114.212
						c52.37-19.317,121.648-63.978,121.648-176.629C701.7,207.205,608.554,1.304,395.998,1.304z M539.761,551.36
						c-28.01,30.325-91.104,41.284-143.765,41.284c-52.669,0-115.752-10.959-143.766-41.284
						c-20.854-22.573-25.328-65.086-24.823-92.914c11.278-15.79,63.022-58.405,168.588-58.405s157.31,42.615,168.586,58.405
						C565.088,486.274,560.614,528.786,539.761,551.36z"/>
				</defs>
				<clipPath id="SVGID_6_">
					<use xlink:href="#SVGID_5_"  overflow="visible"/>
				</clipPath>
				<g clip-path="url(#SVGID_6_)">
					<g>
						<path fill="#EC1D25" d="M-47.502,673.517c104.001-77.459,184.127-167.812,238.15-268.531
							c43.26-80.659,69.955-168.081,79.336-259.832c15.971-156.211-24.509-272.689-24.921-273.849l-13.406,4.75
							c0.401,1.134,39.91,115.109,24.109,268.286c-14.558,141.12-80.461,345.497-311.764,517.768L-47.502,673.517z"/>
					</g>
					<g>
						<g>
							<g>
								<path fill="#EC1D25" d="M261.21-74.865c-4.281-4.717-4.281-4.717-4.281-4.717"/>
							</g>
							<g>
								<path fill="#EC1D25" d="M232.573-41.818"/>
							</g>
						</g>
					</g>
					<g>
						<g>
							<path fill="#333333" d="M299.551,89.358c-1.14,2.346,0.174,4.572,2.159,6.604c1.894,1.964,5.559,1.461,7.011-1.506
								c1.146-2.354-0.25-6.459-2.864-7.004C303.11,86.894,300.707,86.998,299.551,89.358z"/>
						</g>
						<g>
							<path fill="#333333" d="M234.602,101.618c-0.844-2.213-3.303-2.021-6.102-1.099c-2.714,0.892-4.896,4.631-3.831,7.422
								c0.836,2.23,4.676,2.858,6.863,0.627C233.838,106.201,235.438,103.845,234.602,101.618z"/>
						</g>
						<g>
							<g>
								<path fill="#EC1D25" d="M271.081,64.75c-37.279,18.754-64.143,63.375-27.898,34.412c0,0,35.205-23.586,31.544-28.997
									C271.081,64.75,271.081,64.75,271.081,64.75z"/>
							</g>
							<g>
								<path fill="#EC1D25" d="M262.125,65.925c37.418,6.567,64.695,42.351,28.218,25.258c0,0-35.384-12.057-31.799-18.662
									C262.125,65.925,262.125,65.925,262.125,65.925z"/>
							</g>
						</g>
					</g>
					<g>
						<g>
							<path fill="#333333" d="M296.956,140.796c-1.147,2.333,0.164,4.562,2.15,6.609c1.905,1.957,5.561,1.45,7.017-1.515
								c1.154-2.344-0.238-6.459-2.86-7.004C300.519,138.337,298.105,138.438,296.956,140.796z"/>
						</g>
						<g>
							<path fill="#333333" d="M231.993,153.056c-0.814-2.211-3.287-2.025-6.09-1.103c-2.703,0.897-4.898,4.623-3.847,7.426
								c0.84,2.224,4.683,2.848,6.871,0.632C231.245,157.636,232.838,155.284,231.993,153.056z"/>
						</g>
						<g>
							<g>
								<path fill="#EC1D25" d="M268.487,116.188c-37.272,18.743-64.15,63.382-27.901,34.412c0,0,35.205-23.581,31.548-29.008
									C268.487,116.188,268.487,116.188,268.487,116.188z"/>
							</g>
							<g>
								<path fill="#EC1D25" d="M259.532,117.367c37.42,6.551,64.688,42.344,28.207,25.253c0,0-35.385-12.051-31.793-18.648
									C259.532,117.367,259.532,117.367,259.532,117.367z"/>
							</g>
						</g>
					</g>
					<g>
						<g>
							<path fill="#333333" d="M290.152,196.625c-1.271,2.264-0.106,4.593,1.738,6.816c1.769,2.152,5.415,1.919,7.015-0.947
								c1.267-2.273,0.146-6.528-2.413-7.277C293.807,194.435,291.432,194.347,290.152,196.625z"/>
						</g>
						<g>
							<path fill="#333333" d="M225.224,203.731c-0.705-2.305-3.151-2.295-5.965-1.603c-2.719,0.681-5.108,4.271-4.226,7.17
								c0.691,2.312,4.443,3.26,6.739,1.183C224.217,208.288,225.93,206.035,225.224,203.731z"/>
						</g>
						<g>
							<g>
								<path fill="#EC1D25" d="M263.467,169.55c-37.978,15.877-67.142,58.651-29.628,32.385c0,0,36.188-20.9,32.903-26.651
									C263.467,169.55,263.467,169.55,263.467,169.55z"/>
							</g>
							<g>
								<path fill="#EC1D25" d="M254.547,170.019c36.589,9.605,61.438,47.842,26.393,27.7c0,0-34.278-14.987-30.338-21.344
									C254.547,170.019,254.547,170.019,254.547,170.019z"/>
							</g>
						</g>
					</g>
					<g>
						<g>
							<path fill="#333333" d="M278.432,255.063c-1.409,2.169-0.425,4.632,1.26,7.042c1.61,2.292,5.217,2.418,6.989-0.328
								c1.403-2.185,0.562-6.563-1.894-7.557C282.179,253.172,279.836,252.875,278.432,255.063z"/>
						</g>
						<g>
							<path fill="#333333" d="M213.902,256.249c-0.519-2.383-2.935-2.609-5.772-2.166c-2.73,0.437-5.332,3.813-4.656,6.825
								c0.544,2.395,4.181,3.696,6.582,1.811C212.607,260.726,214.438,258.641,213.902,256.249z"/>
						</g>
						<g>
							<g>
								<path fill="#EC1D25" d="M253.921,225.339c-38.511,12.484-70.163,52.887-31.392,29.894c0,0,37.105-17.711,34.252-23.834
									C253.921,225.339,253.921,225.339,253.921,225.339z"/>
							</g>
							<g>
								<path fill="#EC1D25" d="M245.094,224.971c35.448,13.057,57.397,53.887,24.171,30.348c0,0-32.789-18.267-28.485-24.292
									C245.094,224.971,245.094,224.971,245.094,224.971z"/>
							</g>
						</g>
					</g>
					<g>
						<g>
							<path fill="#333333" d="M256.535,320.627c-1.695,1.871-1.126,4.566,0.063,7.369c1.159,2.685,4.599,3.605,6.742,1.222
								c1.709-1.866,1.617-6.474-0.594-8.022C260.427,319.574,258.223,318.75,256.535,320.627z"/>
						</g>
						<g>
							<path fill="#333333" d="M194.623,307.506c-0.145-2.529-2.41-3.288-5.194-3.479c-2.686-0.168-5.716,2.676-5.552,5.856
								c0.114,2.537,3.392,4.643,5.99,3.286C192.628,311.748,194.74,310.018,194.623,307.506z"/>
						</g>
						<g>
							<g>
								<path fill="#EC1D25" d="M237.912,285.227c-38.89,4.045-75.713,37.734-34.879,23.16c0,0,38.359-9.623,36.618-16.422
									C237.912,285.227,237.912,285.227,237.912,285.227z"/>
							</g>
							<g>
								<path fill="#EC1D25" d="M229.517,282.911c31.801,21.035,46.195,67.029,18.223,35.945c0,0-28.43-25.694-23.334-30.812
									C229.517,282.911,229.517,282.911,229.517,282.911z"/>
							</g>
						</g>
					</g>
					<g>
						<g>
							<path fill="#333333" d="M229.159,378.365c-1.901,1.56-1.747,4.403-0.978,7.439c0.733,2.943,3.905,4.518,6.33,2.563
								c1.897-1.582,2.456-6.25,0.566-8.229C233.068,378.06,231.063,376.783,229.159,378.365z"/>
						</g>
						<g>
							<path fill="#333333" d="M171.293,353.158c0.221-2.578-1.872-3.795-4.503-4.521c-2.576-0.691-5.905,1.605-6.197,4.831
								c-0.253,2.587,2.607,5.342,5.324,4.479C168.774,357.029,171.048,355.716,171.293,353.158z"/>
						</g>
						<g>
							<g>
								<path fill="#EC1D25" d="M216.177,339.064c-38.059-3.445-78.327,23.393-36.904,16.605c0,0,38.361-2.278,37.628-9.452
									C216.177,339.064,216.177,339.064,216.177,339.064z"/>
							</g>
							<g>
								<path fill="#EC1D25" d="M208.413,335.098c27.704,27.359,35.105,76.541,12.499,39.764c0,0-23.794-31.384-18.152-35.568
									C208.413,335.098,208.413,335.098,208.413,335.098z"/>
							</g>
						</g>
					</g>
					<g>
						<g>
							<path fill="#333333" d="M202.365,432.855c-2.021,1.307-2.159,4.189-1.711,7.368c0.43,3.075,3.373,5.112,5.923,3.455
								c2.018-1.324,3.047-5.935,1.385-8.199C206.208,433.084,204.372,431.533,202.365,432.855z"/>
						</g>
						<g>
							<path fill="#333333" d="M148.344,399.404c0.475-2.546-1.441-4.049-3.948-5.154c-2.449-1.062-5.925,0.785-6.546,4.004
								c-0.489,2.575,2.013,5.774,4.752,5.274C145.491,402.979,147.849,401.981,148.344,399.404z"/>
						</g>
						<g>
							<g>
								<path fill="#EC1D25" d="M193.623,391.412c-36.852-8.738-78.911,12.764-37.732,11.662c0,0,37.726,2.989,37.732-4.343
									C193.623,391.412,193.623,391.412,193.623,391.412z"/>
							</g>
							<g>
								<path fill="#EC1D25" d="M186.439,386.339c24.313,31.43,26.595,82.059,8.206,41.837c0,0-20.084-34.945-14.14-38.391
									C186.439,386.339,186.439,386.339,186.439,386.339z"/>
							</g>
						</g>
					</g>
					<g>
						<g>
							<path fill="#333333" d="M168.206,486.121c-2.1,1.061-2.495,3.948-2.337,7.241c0.144,3.132,2.863,5.552,5.5,4.176
								c2.124-1.091,3.526-5.621,2.094-8.122C171.95,486.81,170.287,485.04,168.206,486.121z"/>
						</g>
						<g>
							<path fill="#333333" d="M118.145,445.877c0.692-2.529-1.048-4.275-3.426-5.665c-2.295-1.386-5.875,0.059-6.762,3.237
								c-0.713,2.528,1.475,6.062,4.199,5.877C115.036,449.146,117.424,448.408,118.145,445.877z"/>
						</g>
						<g>
							<g>
								<path fill="#EC1D25" d="M163.271,443.267c-35.374-13.258-78.532,3.368-38.039,7.214c0,0,36.741,7.561,37.401,0.157
									C163.271,443.267,163.271,443.267,163.271,443.267z"/>
							</g>
							<g>
								<path fill="#EC1D25" d="M156.664,437.279c21.106,34.639,18.874,85.968,4.379,43.195c0,0-16.633-37.674-10.501-40.434
									C156.664,437.279,156.664,437.279,156.664,437.279z"/>
							</g>
						</g>
					</g>
				</g>
			</g>
			<g>
				<defs>
					<path id="SVGID_7_" d="M395.998,1.304C183.438,1.304,90.3,207.205,90.3,319.855c0,112.651,69.273,157.312,121.643,176.629
						c7.029,82.759,70.916,114.212,184.057,114.212c113.137,0,177.023-31.453,184.053-114.212
						c52.37-19.317,121.648-63.978,121.648-176.629C701.7,207.205,608.554,1.304,395.998,1.304z"/>
				</defs>
				<clipPath id="SVGID_8_">
					<use xlink:href="#SVGID_7_"  overflow="visible"/>
				</clipPath>
				<g clip-path="url(#SVGID_8_)">
					<g>
						<path fill="#EC1D25" d="M636.328,697.44c3.281,0,3.281-5.088,0-5.088C633.048,692.353,633.047,697.44,636.328,697.44
							L636.328,697.44z"/>
					</g>
				</g>
			</g>
		</g>
		<g>
			<path fill="#EC1D25" d="M331.992,427.676c-14.684,0-16.907,22.892-16.907,49.913c0,27.021,2.553,51.225,16.089,51.225
				c13.533,0,16.085-23.55,16.085-50.567C347.259,451.224,346.677,427.676,331.992,427.676z"/>
		</g>
		<g>
			<path fill="#EC1D25" d="M460,427.676c-14.687,0-15.27,23.548-15.27,50.569c0,27.019,2.555,50.567,16.088,50.567
				c13.532,0,16.089-24.204,16.089-51.225C476.908,450.567,474.684,427.676,460,427.676z"/>
		</g>
	</g>
</g>
</svg>
