<?xml version="1.0" encoding="utf-8"?>
<!-- Generator: Adobe Illustrator 16.0.0, SVG Export Plug-In . SVG Version: 6.00 Build 0)  -->
<!DOCTYPE svg PUBLIC "-//W3C//DTD SVG 1.1//EN" "http://www.w3.org/Graphics/SVG/1.1/DTD/svg11.dtd">
<svg version="1.1" id="Layer_1" xmlns="http://www.w3.org/2000/svg" xmlns:xlink="http://www.w3.org/1999/xlink" x="0px" y="0px"
	 width="2016px" height="921.6px" viewBox="0 0 2016 921.6" enable-background="new 0 0 2016 921.6" xml:space="preserve">
<g>
	<g>
		<path fill="#FFFFFF" d="M1235.805,836.4c-44.236,47.891-143.875,65.196-227.041,65.196c-83.176,0-182.8-17.306-227.038-65.196
			c-32.936-35.646-40-102.786-39.203-146.733c17.81-24.937,99.527-92.238,266.241-92.238c166.715,0,248.43,67.302,266.238,92.238
			C1275.803,733.614,1268.736,800.75,1235.805,836.4z"/>
		<g>
			<g>
				<g>
					<g>
						<defs>
							<path id="SVGID_1_" d="M1008.759,2.547c-319.685,0-459.763,309.669-459.763,479.091s104.187,236.591,182.947,265.646
								C742.517,871.75,838.6,919.053,1008.762,919.053c170.156,0,266.238-47.303,276.811-171.769
								c78.764-29.056,182.955-96.225,182.955-265.646S1328.438,2.547,1008.759,2.547z M1224.973,829.813
								c-42.125,45.607-137.014,62.092-216.215,62.092c-79.213,0-174.089-16.484-216.222-62.092
								c-31.365-33.948-38.094-97.886-37.333-139.739c16.961-23.746,94.782-87.838,253.55-87.838
								c158.767,0,236.591,64.092,253.552,87.838C1263.066,731.928,1256.336,795.865,1224.973,829.813z"/>
						</defs>
						<clipPath id="SVGID_2_">
							<use xlink:href="#SVGID_1_"  overflow="visible"/>
						</clipPath>
						<g clip-path="url(#SVGID_2_)">
							<g>
								<g enable-background="new    ">
									<path fill="#FFFFFF" d="M912.495,638.821c-22.084,0-25.427,34.425-25.427,75.066c0,40.636,3.839,77.038,24.197,77.038
										c20.352,0,24.191-35.413,24.191-76.048C935.456,674.235,934.582,638.821,912.495,638.821z"/>
									<path fill="#EC1D25" d="M911.265,815.819c-49.091,0-49.091-68.851-49.091-101.93c0-32.445,0-99.968,50.321-99.968
										c47.858,0,47.858,58.351,47.858,100.952C960.354,747.636,960.354,815.819,911.265,815.819z"/>
								</g>
								<g enable-background="new    ">
									<path fill="#FFFFFF" d="M1008.759,0.355c-319.685,0-459.763,309.669-459.763,479.092
										c0,169.419,104.194,236.591,182.947,265.644c10.573,124.468,106.657,171.77,276.818,171.77
										c170.156,0,266.238-47.305,276.811-171.77c78.764-29.053,182.955-96.225,182.955-265.644
										C1468.525,310.024,1328.438,0.355,1008.759,0.355z M1223.445,826.091c-42.129,45.608-135.484,55.581-214.687,55.581
										c-79.204,0-172.563-9.973-214.692-55.581c-31.363-33.954-39.614-96.359-38.861-138.203
										c16.965-23.754,94.78-87.844,253.552-87.844c158.768,0,236.588,64.09,253.547,87.844
										C1263.066,729.731,1254.807,792.137,1223.445,826.091z"/>
									<path fill="#EC1D25" d="M1008.759,941.756c-118.633,0-276.754-18.959-299.843-178.939
										c-120.993-50.01-184.815-147.679-184.815-283.369c0-80.653,30.229-206.58,115.082-318.151
										c64.466-84.779,180.923-185.836,369.576-185.836c188.649,0,305.106,101.057,369.575,185.838
										c84.857,111.57,115.082,237.5,115.082,318.15c0,135.694-63.822,233.366-184.822,283.371
										C1285.514,922.797,1127.385,941.756,1008.759,941.756z M780.083,696.832c0.541,38.051,9.111,87.294,32.271,112.375
										c20.051,21.697,70.399,47.57,196.405,47.57c126.001,0,176.354-25.873,196.401-47.57
										c23.168-25.086,31.74-74.337,32.27-112.375c-22.031-23.41-95.049-71.897-228.671-71.897
										C875.153,624.935,802.122,673.417,780.083,696.832z M1008.759,25.25c-168.251,0-272.29,90.371-329.944,166.185
										C601.371,293.269,573.894,410.23,573.894,479.447c0,116.563,52.931,196.814,157.36,238.703
										c-1.001-13.274-1.057-24.137-0.939-30.716l0.14-7.731l4.491-6.289c24.284-33.993,112.755-98.27,273.813-98.27
										c161.069,0,249.534,64.276,273.813,98.27l4.484,6.289l0.141,7.725c0.125,6.586,0.068,17.439-0.934,30.723
										c104.439-41.889,157.367-122.14,157.367-238.703c0-69.217-27.477-186.178-104.92-288.013
										C1281.049,115.623,1177.004,25.25,1008.759,25.25z"/>
								</g>
								<g enable-background="new    ">
									<path fill="#FFFFFF" d="M1105.014,638.821c-22.088,0-22.961,35.414-22.961,76.053c0,40.635,3.842,76.047,24.193,76.047
										s24.201-36.402,24.201-77.033C1130.447,673.246,1127.1,638.821,1105.014,638.821z"/>
									<path fill="#EC1D25" d="M1106.248,815.819c-49.088,0-49.088-68.184-49.088-100.945c0-42.602,0-100.952,47.854-100.952
										c50.328,0,50.328,67.522,50.328,99.968C1155.342,746.967,1155.342,815.819,1106.248,815.819z"/>
								</g>
							</g>
						</g>
					</g>
				</g>
				<g>
					<g>
						<defs>
							<path id="SVGID_3_" d="M1008.759,2.547c-319.685,0-459.763,309.669-459.763,479.091s104.187,236.591,182.947,265.646
								C742.517,871.75,838.6,919.053,1008.762,919.053c170.156,0,266.238-47.303,276.811-171.769
								c78.764-29.056,182.955-96.225,182.955-265.646S1328.438,2.547,1008.759,2.547z M1224.973,829.813
								c-42.125,45.607-137.014,62.092-216.215,62.092c-79.213,0-174.089-16.484-216.222-62.092
								c-31.365-33.948-38.094-97.886-37.333-139.739c16.961-23.746,94.782-87.838,253.55-87.838
								c158.767,0,236.591,64.092,253.552,87.838C1263.066,731.928,1256.336,795.865,1224.973,829.813z"/>
						</defs>
						<clipPath id="SVGID_4_">
							<use xlink:href="#SVGID_3_"  overflow="visible"/>
						</clipPath>
						<g clip-path="url(#SVGID_4_)">
							<g>
								<path fill="#EC1D25" d="M1674.846,1013.534c-156.412-116.496-276.928-252.383-358.172-403.86
									c-65.061-121.31-105.205-252.79-119.322-390.782c-24.016-234.937,36.867-410.118,37.477-411.861l20.168,7.145
									c-0.6,1.706-60.02,173.121-36.254,403.494c21.895,212.24,121.008,519.619,468.885,778.713L1674.846,1013.534z"/>
							</g>
							<g>
								<g>
									<g>
										<path fill="#EC1D25" d="M1210.551-112.01c6.439-7.097,6.439-7.097,6.439-7.097"/>
									</g>
									<g>
										<path fill="#EC1D25" d="M1253.621-62.309"/>
									</g>
								</g>
							</g>
							<g>
								<g>
									<path fill="#333333" d="M1152.885,134.978c1.721,3.527-0.258,6.875-3.244,9.931c-2.848,2.952-8.355,2.196-10.543-2.266
										c-1.725-3.541,0.375-9.712,4.307-10.534C1147.535,131.271,1151.152,131.428,1152.885,134.978z"/>
								</g>
								<g>
									<path fill="#333333" d="M1250.572,153.417c1.27-3.329,4.963-3.04,9.174-1.655c4.084,1.344,7.363,6.966,5.762,11.164
										c-1.256,3.354-7.027,4.299-10.32,0.942C1251.715,160.307,1249.311,156.765,1250.572,153.417z"/>
								</g>
								<g>
									<g>
										<path fill="#EC1D25" d="M1195.705,97.965c56.064,28.208,96.469,95.316,41.959,51.757c0,0-52.951-35.472-47.441-43.612
											C1195.705,97.965,1195.705,97.965,1195.705,97.965z"/>
									</g>
									<g>
										<path fill="#EC1D25" d="M1209.17,99.735c-56.271,9.876-97.297,63.694-42.434,37.987c0,0,53.215-18.132,47.82-28.068
											C1209.17,99.735,1209.17,99.735,1209.17,99.735z"/>
									</g>
								</g>
							</g>
							<g>
								<g>
									<path fill="#333333" d="M1156.789,212.337c1.725,3.51-0.25,6.861-3.23,9.942c-2.869,2.943-8.365,2.179-10.557-2.278
										c-1.736-3.529,0.361-9.715,4.301-10.534C1151.432,208.64,1155.061,208.792,1156.789,212.337z"/>
								</g>
								<g>
									<path fill="#333333" d="M1254.492,230.775c1.223-3.324,4.943-3.043,9.162-1.656c4.061,1.347,7.363,6.953,5.783,11.167
										c-1.262,3.346-7.043,4.283-10.332,0.951C1255.615,237.664,1253.221,234.129,1254.492,230.775z"/>
								</g>
								<g>
									<g>
										<path fill="#EC1D25" d="M1199.607,175.328c56.055,28.19,96.475,95.324,41.961,51.755c0,0-52.947-35.464-47.445-43.627
											C1199.607,175.328,1199.607,175.328,1199.607,175.328z"/>
									</g>
									<g>
										<path fill="#EC1D25" d="M1213.078,177.101c-56.279,9.854-97.291,63.685-42.424,37.981c0,0,53.217-18.126,47.811-28.045
											C1213.078,177.101,1213.078,177.101,1213.078,177.101z"/>
									</g>
								</g>
							</g>
							<g>
								<g>
									<path fill="#333333" d="M1167.021,296.305c1.912,3.403,0.162,6.904-2.613,10.248c-2.662,3.239-8.141,2.887-10.553-1.423
										c-1.906-3.418-0.217-9.815,3.629-10.944C1161.531,293.008,1165.098,292.878,1167.021,296.305z"/>
								</g>
								<g>
									<path fill="#333333" d="M1264.674,306.99c1.059-3.467,4.74-3.453,8.979-2.411c4.084,1.025,7.672,6.424,6.348,10.783
										c-1.039,3.479-6.678,4.904-10.131,1.781C1266.188,313.844,1263.613,310.456,1264.674,306.99z"/>
								</g>
								<g>
									<g>
										<path fill="#EC1D25" d="M1207.158,255.583c57.117,23.878,100.982,88.208,44.559,48.707c0,0-54.426-31.434-49.486-40.083
											C1207.158,255.583,1207.158,255.583,1207.158,255.583z"/>
									</g>
									<g>
										<path fill="#EC1D25" d="M1220.574,256.29c-55.031,14.442-92.402,71.952-39.695,41.656c0,0,51.555-22.538,45.629-32.1
											C1220.574,256.29,1220.574,256.29,1220.574,256.29z"/>
									</g>
								</g>
							</g>
							<g>
								<g>
									<path fill="#333333" d="M1184.648,384.192c2.125,3.261,0.645,6.965-1.891,10.589c-2.426,3.448-7.848,3.639-10.516-0.492
										c-2.111-3.286-0.844-9.87,2.854-11.365C1179.018,381.349,1182.539,380.902,1184.648,384.192z"/>
								</g>
								<g>
									<path fill="#333333" d="M1281.701,385.975c0.779-3.582,4.414-3.923,8.682-3.257c4.102,0.658,8.014,5.734,6.998,10.264
										c-0.82,3.602-6.287,5.559-9.898,2.723C1283.645,392.708,1280.9,389.573,1281.701,385.975z"/>
								</g>
								<g>
									<g>
										<path fill="#EC1D25" d="M1221.518,339.488c57.916,18.774,105.518,79.541,47.203,44.959c0,0-55.801-26.637-51.508-35.846
											C1221.518,339.488,1221.518,339.488,1221.518,339.488z"/>
									</g>
									<g>
										<path fill="#EC1D25" d="M1234.791,338.935c-53.313,19.636-86.324,81.044-36.354,45.642c0,0,49.314-27.473,42.836-36.533
											C1234.791,338.935,1234.791,338.935,1234.791,338.935z"/>
									</g>
								</g>
							</g>
							<g>
								<g>
									<path fill="#333333" d="M1217.588,482.798c2.543,2.815,1.689,6.869-0.098,11.082c-1.744,4.041-6.922,5.422-10.137,1.84
										c-2.578-2.809-2.436-9.736,0.891-12.066C1211.727,481.212,1215.047,479.976,1217.588,482.798z"/>
								</g>
								<g>
									<path fill="#333333" d="M1310.693,463.063c0.219-3.803,3.631-4.944,7.811-5.23c4.043-0.254,8.602,4.023,8.354,8.807
										c-0.174,3.814-5.102,6.982-9.006,4.941C1313.695,469.444,1310.523,466.841,1310.693,463.063z"/>
								</g>
								<g>
									<g>
										<path fill="#EC1D25" d="M1245.592,429.558c58.494,6.082,113.867,56.75,52.459,34.831c0,0-57.693-14.473-55.076-24.697
											C1245.592,429.558,1245.592,429.558,1245.592,429.558z"/>
									</g>
									<g>
										<path fill="#EC1D25" d="M1258.215,426.073c-47.83,31.636-69.471,100.813-27.404,54.063c0,0,42.766-38.646,35.092-46.34
											C1258.215,426.073,1258.215,426.073,1258.215,426.073z"/>
									</g>
								</g>
							</g>
							<g>
								<g>
									<path fill="#333333" d="M1258.758,569.636c2.852,2.344,2.629,6.619,1.473,11.184c-1.102,4.429-5.877,6.8-9.516,3.858
										c-2.859-2.381-3.703-9.399-0.857-12.378C1252.873,569.177,1255.889,567.255,1258.758,569.636z"/>
								</g>
								<g>
									<path fill="#333333" d="M1345.785,531.724c-0.336-3.875,2.809-5.707,6.775-6.799c3.871-1.039,8.875,2.413,9.314,7.264
										c0.377,3.893-3.922,8.037-8.004,6.736C1349.57,537.544,1346.148,535.571,1345.785,531.724z"/>
								</g>
								<g>
									<g>
										<path fill="#EC1D25" d="M1278.281,510.526c57.236-5.18,117.803,35.182,55.504,24.972c0,0-57.695-3.425-56.596-14.212
											C1278.281,510.526,1278.281,510.526,1278.281,510.526z"/>
									</g>
									<g>
										<path fill="#EC1D25" d="M1289.961,504.562c-41.668,41.146-52.795,115.116-18.803,59.804c0,0,35.787-47.198,27.293-53.492
											C1289.961,504.562,1289.961,504.562,1289.961,504.562z"/>
									</g>
								</g>
							</g>
							<g>
								<g>
									<path fill="#333333" d="M1299.055,651.587c3.037,1.967,3.246,6.298,2.574,11.081c-0.646,4.624-5.078,7.688-8.908,5.194
										c-3.037-1.988-4.586-8.925-2.086-12.328C1293.275,651.932,1296.037,649.599,1299.055,651.587z"/>
								</g>
								<g>
									<path fill="#333333" d="M1380.299,601.277c-0.713-3.828,2.17-6.093,5.941-7.754c3.68-1.595,8.904,1.183,9.844,6.022
										c0.732,3.875-3.033,8.686-7.15,7.934C1384.588,606.652,1381.045,605.153,1380.299,601.277z"/>
								</g>
								<g>
									<g>
										<path fill="#EC1D25" d="M1312.201,589.257c55.426-13.142,118.676,19.196,56.746,17.543c0,0-56.736,4.49-56.746-6.537
											C1312.201,589.257,1312.201,589.257,1312.201,589.257z"/>
									</g>
									<g>
										<path fill="#EC1D25" d="M1323.006,581.626c-36.574,47.271-40.004,123.414-12.346,62.921c0,0,30.209-52.557,21.271-57.738
											C1323.006,581.626,1323.006,581.626,1323.006,581.626z"/>
									</g>
								</g>
							</g>
							<g>
								<g>
									<path fill="#333333" d="M1350.432,731.695c3.154,1.595,3.742,5.937,3.514,10.894c-0.217,4.708-4.301,8.35-8.271,6.278
										c-3.195-1.641-5.301-8.454-3.15-12.213C1344.799,732.732,1347.295,730.069,1350.432,731.695z"/>
								</g>
								<g>
									<path fill="#333333" d="M1425.719,671.173c-1.041-3.808,1.576-6.434,5.154-8.524c3.447-2.083,8.838,0.093,10.166,4.872
										c1.076,3.798-2.221,9.117-6.314,8.838C1430.395,676.09,1426.799,674.978,1425.719,671.173z"/>
								</g>
								<g>
									<g>
										<path fill="#EC1D25" d="M1357.85,667.245c53.197-19.938,118.113,5.064,57.213,10.854c0,0-55.264,11.367-56.252,0.233
											C1357.85,667.245,1357.85,667.245,1357.85,667.245z"/>
									</g>
									<g>
										<path fill="#EC1D25" d="M1367.783,658.238c-31.738,52.099-28.385,129.294-6.584,64.964c0,0,25.018-56.662,15.793-60.808
											C1367.783,658.238,1367.783,658.238,1367.783,658.238z"/>
									</g>
								</g>
							</g>
						</g>
					</g>
				</g>
				<g>
					<g>
						<defs>
							<path id="SVGID_5_" d="M1008.759,2.547c-319.685,0-459.763,309.669-459.763,479.091s104.187,236.591,182.947,265.646
								C742.517,871.75,838.6,919.053,1008.762,919.053c170.156,0,266.238-47.303,276.811-171.769
								c78.764-29.056,182.955-96.225,182.955-265.646S1328.438,2.547,1008.759,2.547z M1224.973,829.813
								c-42.125,45.607-137.014,62.092-216.215,62.092c-79.213,0-174.089-16.484-216.222-62.092
								c-31.365-33.948-38.094-97.886-37.333-139.739c16.961-23.746,94.782-87.838,253.55-87.838
								c158.767,0,236.591,64.092,253.552,87.838C1263.066,731.928,1256.336,795.865,1224.973,829.813z"/>
						</defs>
						<clipPath id="SVGID_6_">
							<use xlink:href="#SVGID_5_"  overflow="visible"/>
						</clipPath>
						<g clip-path="url(#SVGID_6_)">
							<g>
								<path fill="#EC1D25" d="M341.745,1013.534c156.415-116.496,276.922-252.383,358.171-403.86
									c65.064-121.31,105.212-252.79,119.321-390.782c24.021-234.937-36.86-410.118-37.482-411.861l-20.162,7.145
									c0.604,1.706,60.025,173.121,36.26,403.494c-21.894,212.24-121.009,519.619-468.884,778.713L341.745,1013.534z"/>
							</g>
							<g>
								<g>
									<g>
										<path fill="#EC1D25" d="M806.042-112.01c-6.439-7.097-6.439-7.097-6.439-7.097"/>
									</g>
									<g>
										<path fill="#EC1D25" d="M762.973-62.309"/>
									</g>
								</g>
							</g>
							<g>
								<g>
									<path fill="#333333" d="M863.704,134.978c-1.715,3.527,0.262,6.875,3.248,9.931c2.849,2.952,8.36,2.196,10.543-2.266
										c1.726-3.541-0.373-9.712-4.307-10.534C869.056,131.271,865.442,131.428,863.704,134.978z"/>
								</g>
								<g>
									<path fill="#333333" d="M766.023,153.417c-1.27-3.329-4.969-3.04-9.178-1.655c-4.082,1.344-7.365,6.966-5.761,11.164
										c1.258,3.354,7.032,4.299,10.324,0.942C764.874,160.307,767.281,156.765,766.023,153.417z"/>
								</g>
								<g>
									<g>
										<path fill="#EC1D25" d="M820.888,97.965c-56.067,28.208-96.471,95.316-41.96,51.757c0,0,52.947-35.472,47.441-43.612
											C820.888,97.965,820.888,97.965,820.888,97.965z"/>
									</g>
									<g>
										<path fill="#EC1D25" d="M807.418,99.735c56.274,9.876,97.299,63.694,42.437,37.987c0,0-53.215-18.132-47.826-28.068
											C807.418,99.735,807.418,99.735,807.418,99.735z"/>
									</g>
								</g>
							</g>
							<g>
								<g>
									<path fill="#333333" d="M859.802,212.337c-1.726,3.51,0.248,6.861,3.233,9.942c2.865,2.943,8.365,2.179,10.553-2.278
										c1.735-3.529-0.356-9.715-4.3-10.534C865.161,208.64,861.53,208.792,859.802,212.337z"/>
								</g>
								<g>
									<path fill="#333333" d="M762.101,230.775c-1.225-3.324-4.946-3.043-9.16-1.656c-4.065,1.347-7.366,6.953-5.786,11.167
										c1.264,3.346,7.043,4.283,10.333,0.951C760.974,237.664,763.372,234.129,762.101,230.775z"/>
								</g>
								<g>
									<g>
										<path fill="#EC1D25" d="M816.987,175.328c-56.058,28.19-96.482,95.324-41.962,51.755c0,0,52.947-35.464,47.446-43.627
											C816.987,175.328,816.987,175.328,816.987,175.328z"/>
									</g>
									<g>
										<path fill="#EC1D25" d="M803.518,177.101c56.278,9.854,97.288,63.685,42.421,37.981c0,0-53.218-18.126-47.816-28.045
											C803.518,177.101,803.518,177.101,803.518,177.101z"/>
									</g>
								</g>
							</g>
							<g>
								<g>
									<path fill="#333333" d="M849.568,296.305c-1.911,3.403-0.158,6.904,2.614,10.248c2.66,3.239,8.144,2.887,10.55-1.423
										c1.904-3.418,0.22-9.815-3.628-10.944C855.068,293.008,851.494,292.878,849.568,296.305z"/>
								</g>
								<g>
									<path fill="#333333" d="M751.919,306.99c-1.06-3.467-4.74-3.453-8.97-2.411c-4.091,1.025-7.683,6.424-6.357,10.783
										c1.04,3.479,6.684,4.904,10.136,1.781C750.405,313.844,752.98,310.456,751.919,306.99z"/>
								</g>
								<g>
									<g>
										<path fill="#EC1D25" d="M809.435,255.583c-57.117,23.878-100.978,88.208-44.561,48.707c0,0,54.426-31.434,49.486-40.083
											C809.435,255.583,809.435,255.583,809.435,255.583z"/>
									</g>
									<g>
										<path fill="#EC1D25" d="M796.02,256.29c55.03,14.442,92.401,71.952,39.695,41.656c0,0-51.554-22.538-45.627-32.1
											C796.02,256.29,796.02,256.29,796.02,256.29z"/>
									</g>
								</g>
							</g>
							<g>
								<g>
									<path fill="#333333" d="M831.943,384.192c-2.121,3.261-0.64,6.965,1.896,10.589c2.421,3.448,7.844,3.639,10.508-0.492
										c2.112-3.286,0.846-9.87-2.847-11.365C837.578,381.349,834.053,380.902,831.943,384.192z"/>
								</g>
								<g>
									<path fill="#333333" d="M734.891,385.975c-0.781-3.582-4.415-3.923-8.681-3.257c-4.105,0.658-8.019,5.734-7.001,10.264
										c0.815,3.602,6.285,5.559,9.898,2.723C732.943,392.708,735.697,389.573,734.891,385.975z"/>
								</g>
								<g>
									<g>
										<path fill="#EC1D25" d="M795.077,339.488c-57.917,18.774-105.522,79.541-47.212,44.959c0,0,55.807-26.637,51.515-35.846
											C795.077,339.488,795.077,339.488,795.077,339.488z"/>
									</g>
									<g>
										<path fill="#EC1D25" d="M781.8,338.935c53.315,19.636,86.327,81.044,36.356,45.642c0,0-49.314-27.473-42.842-36.533
											C781.8,338.935,781.8,338.935,781.8,338.935z"/>
									</g>
								</g>
							</g>
							<g>
								<g>
									<path fill="#333333" d="M799.01,482.798c-2.55,2.815-1.693,6.869,0.094,11.082c1.743,4.041,6.918,5.422,10.141,1.84
										c2.567-2.809,2.43-9.736-0.894-12.066C804.864,481.212,801.548,479.976,799.01,482.798z"/>
								</g>
								<g>
									<path fill="#333333" d="M705.896,463.063c-0.217-3.803-3.627-4.944-7.811-5.23c-4.04-0.254-8.599,4.023-8.35,8.807
										c0.17,3.814,5.1,6.982,9.007,4.941C702.896,469.444,706.073,466.841,705.896,463.063z"/>
								</g>
								<g>
									<g>
										<path fill="#EC1D25" d="M771.002,429.558c-58.492,6.082-113.872,56.75-52.458,34.831c0,0,57.689-14.473,55.071-24.697
											C771.002,429.558,771.002,429.558,771.002,429.558z"/>
									</g>
									<g>
										<path fill="#EC1D25" d="M758.375,426.073c47.828,31.636,69.476,100.813,27.407,54.063c0,0-42.759-38.646-35.092-46.34
											C758.375,426.073,758.375,426.073,758.375,426.073z"/>
									</g>
								</g>
							</g>
							<g>
								<g>
									<path fill="#333333" d="M757.835,569.636c-2.857,2.344-2.626,6.619-1.469,11.184c1.103,4.429,5.871,6.8,9.519,3.858
										c2.854-2.381,3.695-9.399,0.851-12.378C763.715,569.177,760.703,567.255,757.835,569.636z"/>
								</g>
								<g>
									<path fill="#333333" d="M670.808,531.724c0.333-3.875-2.814-5.707-6.771-6.799c-3.876-1.039-8.882,2.413-9.321,7.264
										c-0.379,3.893,3.921,8.037,8.009,6.736C667.02,537.544,670.438,535.571,670.808,531.724z"/>
								</g>
								<g>
									<g>
										<path fill="#EC1D25" d="M738.312,510.526c-57.239-5.18-117.801,35.182-55.501,24.972c0,0,57.692-3.425,56.591-14.212
											C738.312,510.526,738.312,510.526,738.312,510.526z"/>
									</g>
									<g>
										<path fill="#EC1D25" d="M726.635,504.562c41.667,41.146,52.797,115.116,18.799,59.804c0,0-35.786-47.198-27.301-53.492
											C726.635,504.562,726.635,504.562,726.635,504.562z"/>
									</g>
								</g>
							</g>
							<g>
								<g>
									<path fill="#333333" d="M717.541,651.587c-3.041,1.967-3.246,6.298-2.576,11.081c0.648,4.624,5.074,7.688,8.91,5.194
										c3.034-1.988,4.582-8.925,2.082-12.328C723.32,651.932,720.559,649.599,717.541,651.587z"/>
								</g>
								<g>
									<path fill="#333333" d="M636.292,601.277c0.715-3.828-2.164-6.093-5.936-7.754c-3.685-1.595-8.911,1.183-9.845,6.022
										c-0.735,3.875,3.026,8.686,7.146,7.934C632.005,606.652,635.548,605.153,636.292,601.277z"/>
								</g>
								<g>
									<g>
										<path fill="#EC1D25" d="M704.393,589.257c-55.426-13.142-118.679,19.196-56.748,17.543c0,0,56.739,4.49,56.748-6.537
											C704.393,589.257,704.393,589.257,704.393,589.257z"/>
									</g>
									<g>
										<path fill="#EC1D25" d="M693.586,581.626c36.568,47.271,40,123.414,12.343,62.921c0,0-30.208-52.557-21.266-57.738
											C693.586,581.626,693.586,581.626,693.586,581.626z"/>
									</g>
								</g>
							</g>
							<g>
								<g>
									<path fill="#333333" d="M666.164,731.695c-3.157,1.595-3.751,5.937-3.512,10.894c0.215,4.708,4.304,8.35,8.27,6.278
										c3.197-1.641,5.303-8.454,3.151-12.213C671.796,732.732,669.295,730.069,666.164,731.695z"/>
								</g>
								<g>
									<path fill="#333333" d="M590.875,671.173c1.043-3.808-1.577-6.434-5.152-8.524c-3.45-2.083-8.835,0.093-10.17,4.872
										c-1.071,3.798,2.219,9.117,6.317,8.838C586.201,676.09,589.792,674.978,590.875,671.173z"/>
								</g>
								<g>
									<g>
										<path fill="#EC1D25" d="M658.745,667.245c-53.204-19.938-118.111,5.064-57.209,10.854c0,0,55.257,11.367,56.247,0.233
											C658.745,667.245,658.745,667.245,658.745,667.245z"/>
									</g>
									<g>
										<path fill="#EC1D25" d="M648.808,658.238c31.741,52.099,28.385,129.294,6.583,64.964c0,0-25.013-56.662-15.791-60.808
											C648.808,658.238,648.808,658.238,648.808,658.238z"/>
									</g>
								</g>
							</g>
						</g>
					</g>
				</g>
				<g>
					<g>
						<defs>
							<path id="SVGID_7_" d="M1008.759,2.547c-319.685,0-459.763,309.669-459.763,479.091s104.187,236.591,182.947,265.646
								C742.517,871.75,838.6,919.053,1008.762,919.053c170.156,0,266.238-47.303,276.811-171.769
								c78.764-29.056,182.955-96.225,182.955-265.646S1328.438,2.547,1008.759,2.547z"/>
						</defs>
						<clipPath id="SVGID_8_">
							<use xlink:href="#SVGID_7_"  overflow="visible"/>
						</clipPath>
						<g clip-path="url(#SVGID_8_)">
							<g>
								<path fill="#EC1D25" d="M1370.209,1049.518c4.934,0,4.934-7.657,0-7.657
									C1365.277,1041.864,1365.271,1049.518,1370.209,1049.518L1370.209,1049.518z"/>
							</g>
						</g>
					</g>
				</g>
			</g>
			<g>
				<path fill="#EC1D25" d="M912.495,643.798c-22.084,0-25.427,34.426-25.427,75.068c0,40.636,3.839,77.039,24.197,77.039
					c20.352,0,24.191-35.418,24.191-76.052C935.456,679.214,934.582,643.798,912.495,643.798z"/>
			</g>
			<g>
				<path fill="#EC1D25" d="M1105.014,643.798c-22.088,0-22.961,35.416-22.961,76.052c0,40.638,3.842,76.056,24.193,76.056
					s24.201-36.403,24.201-77.045C1130.447,678.224,1127.1,643.798,1105.014,643.798z"/>
			</g>
		</g>
	</g>
	<g>
		<path fill="#EC1D25" d="M9.854,501.969v-9.133l11.814-2.029v-83.136l-11.814-2.029v-9.205h81.034v25.369h-12.25l-1.16-14.134
			H35.947v34.139h40.372v11.234H35.947v37.763h42.402l1.16-14.134h12.177v25.296H9.854z"/>
		<path fill="#EC1D25" d="M180.91,427.604h-10.8l-2.682-15.076c-2.175-1.836-5.074-3.358-8.698-4.566
			c-3.624-1.207-7.828-1.812-12.612-1.812c-7.587,0-13.409,1.607-17.468,4.82c-4.059,3.214-6.088,7.405-6.088,12.575
			c0,4.591,2.066,8.42,6.197,11.488c4.131,3.07,10.811,5.763,20.041,8.082c11.113,2.754,19.558,6.813,25.333,12.178
			c5.773,5.363,8.661,12.007,8.661,19.932c0,8.505-3.468,15.342-10.401,20.512c-6.935,5.171-16.007,7.756-27.217,7.756
			c-8.118,0-15.33-1.33-21.636-3.986c-6.306-2.657-11.44-6.137-15.402-10.438v-19.643h10.728l2.754,15.148
			c2.754,2.272,6.04,4.132,9.857,5.581c3.816,1.45,8.383,2.175,13.699,2.175c7.2,0,12.889-1.522,17.069-4.566
			c4.179-3.044,6.27-7.176,6.27-12.395c0-4.831-1.812-8.879-5.436-12.141s-10.027-6.003-19.208-8.227
			c-11.162-2.656-19.885-6.57-26.166-11.742c-6.282-5.17-9.423-11.669-9.423-19.497c0-8.263,3.503-15.136,10.51-20.621
			c7.006-5.484,16.115-8.227,27.326-8.227c7.393,0,14.121,1.268,20.186,3.805c6.063,2.537,10.932,5.617,14.605,9.241V427.604z"/>
		<path fill="#EC1D25" d="M280.137,396.437v23.339H267.96l-1.087-12.104h-23.412v83.136l11.814,2.029v9.133h-37.908v-9.133
			l11.814-2.029v-83.136h-23.484l-1.015,12.104h-12.25v-23.339H280.137z"/>
		<path fill="#EC1D25" d="M291.806,501.969h-14.279v-14.641h14.279V501.969z"/>
	</g>
	<g>
		<path fill="#EC1D25" d="M1686.576,501.969v-9.785l34.574-38.415c6.186-6.908,10.377-12.394,12.576-16.453
			c2.197-4.059,3.297-8.214,3.297-12.466c0-5.266-1.547-9.7-4.639-13.3c-3.092-3.599-7.176-5.4-12.248-5.4
			c-7.297,0-12.662,1.861-16.092,5.581c-3.432,3.722-5.146,8.988-5.146,15.801h-13.699l-0.145-0.435
			c-0.242-9.084,2.766-16.718,9.023-22.904c6.258-6.185,14.943-9.277,26.059-9.277c9.518,0,17.092,2.767,22.723,8.299
			c5.629,5.534,8.443,12.576,8.443,21.128c0,5.751-1.703,11.501-5.109,17.251s-8.203,11.959-14.389,18.627l-27.76,30.225
			l0.145,0.362h37.473l1.16-12.104h12.105v23.267H1686.576z"/>
		<path fill="#EC1D25" d="M1837.482,461.742c0,13.481-2.996,23.81-8.986,30.985c-5.992,7.176-14.184,10.764-24.572,10.764
			c-10.34,0-18.531-3.6-24.57-10.8c-6.041-7.199-9.061-17.516-9.061-30.949v-25.006c0-13.433,2.996-23.762,8.988-30.986
			c5.99-7.223,14.158-10.836,24.498-10.836c10.389,0,18.604,3.613,24.645,10.836c6.039,7.224,9.059,17.553,9.059,30.986V461.742z
			 M1823.205,433.692c0-9.133-1.656-16.006-4.965-20.622c-3.311-4.614-8.131-6.922-14.461-6.922c-6.232,0-10.992,2.308-14.279,6.922
			c-3.285,4.615-4.928,11.488-4.928,20.622v30.949c0,9.132,1.666,16.03,5,20.693c3.336,4.663,8.119,6.994,14.352,6.994
			c6.33,0,11.127-2.319,14.389-6.958s4.893-11.549,4.893-20.729V433.692z"/>
		<path fill="#EC1D25" d="M1922.141,461.742c0,13.481-2.996,23.81-8.986,30.985c-5.992,7.176-14.184,10.764-24.572,10.764
			c-10.34,0-18.531-3.6-24.57-10.8c-6.041-7.199-9.061-17.516-9.061-30.949v-25.006c0-13.433,2.996-23.762,8.988-30.986
			c5.99-7.223,14.158-10.836,24.498-10.836c10.389,0,18.604,3.613,24.645,10.836c6.039,7.224,9.059,17.553,9.059,30.986V461.742z
			 M1907.863,433.692c0-9.133-1.656-16.006-4.965-20.622c-3.311-4.614-8.131-6.922-14.461-6.922c-6.232,0-10.992,2.308-14.279,6.922
			c-3.285,4.615-4.928,11.488-4.928,20.622v30.949c0,9.132,1.666,16.03,5,20.693c3.336,4.663,8.119,6.994,14.352,6.994
			c6.33,0,11.127-2.319,14.389-6.958s4.893-11.549,4.893-20.729V433.692z"/>
		<path fill="#EC1D25" d="M2003.248,423.979c0,5.508-1.547,10.328-4.639,14.46c-3.094,4.132-7.273,7.212-12.539,9.241
			c6.088,2.127,10.955,5.461,14.605,10.002c3.646,4.543,5.471,9.785,5.471,15.729c0,9.762-3.178,17.215-9.531,22.36
			c-6.354,5.146-14.604,7.72-24.752,7.72c-10.34,0-18.652-2.573-24.934-7.72c-6.281-5.146-9.422-12.599-9.422-22.36
			c0-5.943,1.787-11.186,5.363-15.729c3.576-4.541,8.408-7.875,14.496-10.002c-5.268-2.029-9.398-5.109-12.395-9.241
			s-4.494-8.952-4.494-14.46c0-9.278,2.863-16.441,8.59-21.491c5.727-5.049,13.275-7.574,22.65-7.574
			c9.277,0,16.852,2.525,22.723,7.574C2000.313,407.539,2003.248,414.702,2003.248,423.979z M1991.941,473.121
			c0-5.798-1.91-10.557-5.727-14.278c-3.818-3.721-8.65-5.581-14.496-5.581c-5.896,0-10.691,1.849-14.387,5.545
			c-3.697,3.696-5.545,8.469-5.545,14.314c0,5.992,1.822,10.691,5.471,14.098c3.648,3.407,8.518,5.11,14.605,5.11
			c5.943,0,10.775-1.715,14.496-5.146C1990.08,483.752,1991.941,479.064,1991.941,473.121z M1988.969,424.27
			c0-5.219-1.631-9.543-4.893-12.974c-3.262-3.431-7.381-5.146-12.357-5.146c-5.074,0-9.168,1.656-12.285,4.965
			c-3.117,3.311-4.676,7.696-4.676,13.156c0,5.363,1.57,9.665,4.711,12.901c3.141,3.238,7.273,4.856,12.395,4.856
			c5.025,0,9.133-1.618,12.322-4.856C1987.375,433.935,1988.969,429.633,1988.969,424.27z"/>
	</g>
</g>
</svg>
