<?xml version="1.0" encoding="utf-8"?>
<!-- Generator: Adobe Illustrator 16.0.0, SVG Export Plug-In . SVG Version: 6.00 Build 0)  -->
<!DOCTYPE svg PUBLIC "-//W3C//DTD SVG 1.1//EN" "http://www.w3.org/Graphics/SVG/1.1/DTD/svg11.dtd">
<svg version="1.1" id="Layer_1" xmlns="http://www.w3.org/2000/svg" xmlns:xlink="http://www.w3.org/1999/xlink" x="0px" y="0px"
	 width="505.46px" height="498.746px" viewBox="0 0 505.46 498.746" enable-background="new 0 0 505.46 498.746"
	 xml:space="preserve">
<g id="_x31_-1_x5F_スーパーキノコ_2_">
	<path fill="#EC1C24" d="M460.76,118.411c0,0-1.846-2.814-1.993-2.96C410.746,43.595,337.654,2.551,252.578,0
		C167.792,2.551,94.672,43.595,46.681,115.451c-0.32,0.146-1.995,2.96-1.995,2.96C7.043,176.373-8.316,249.079,4.375,308.153v-0.146
		c0.412,1.437,0.527,2.874,0.822,4.281c10.669,41.043,53.268,74.112,89.183,91.438c41.748-51.245,95.868-75.697,158.783-75.989
		c62.886,0.292,114.867,20.317,158.049,75.989c35.915-17.326,78.222-50.396,88.922-91.438c0.382-1.407,0.675-2.845,0.822-4.281
		l0.116,0.146C513.881,249.079,498.11,176.373,460.76,118.411"/>
	<path fill="#FFFFFF" d="M28.768,304.46l-0.146-0.264c-2.553-12.519-3.986-25.563-3.986-39.051c0-24.451,4.397-50.191,12.662-75.11
		c6.247-17.533,16.477-39.228,27.269-57.991c5.276,17.034,8.091,35.503,8.091,54.678C72.657,234.04,55.624,276.346,28.768,304.46"/>
	<path fill="#FFFFFF" d="M255.275,272.065c-67.461,0-122.106-53.241-122.106-119c0-65.583,54.646-118.854,122.106-118.854
		c67.605,0,122.108,53.271,122.108,118.854C377.383,218.824,322.88,272.065,255.275,272.065"/>
	<path fill="#FFFFFF" d="M479.79,303.784c0,0,0,0.148,0,0.266c-26.681-28.115-43.714-70.156-43.714-117.328
		c0-19.027,2.814-37.38,7.943-54.091c11.521,19.613,22.134,42.744,28.264,60.365c7.507,23.805,11.491,48.139,11.491,71.564
		C483.774,278.045,482.485,291.239,479.79,303.784"/>
	<path fill="#FCD0AF" d="M252.578,327.355c-57.08,0.119-126.797,19.291-158.197,76.371c3.432,28.527,15.743,65.32,56.232,79.688
		c32.395,11.345,65.171,15.068,87.217,15.186h7.8c0.148,0.146,6.948,0.146,6.948,0.146s7.124,0,7.241-0.146h7.799
		c22.045-0.117,54.824-3.841,87.22-15.186c40.487-14.367,52.83-51.16,56.375-79.688
		C379.522,346.646,309.805,327.475,252.578,327.355"/>
	<path fill="#6D6E70" d="M201.211,431.58c-11.96-0.293-13.397-19.994-13.397-43.478c0-23.396,2.552-40.897,13.662-41.721
		c12.783-1.435,12.783,19.175,12.783,42.6C214.259,412.524,212.413,431.58,201.211,431.58"/>
	<path fill="#6D6E70" d="M308.25,431.58c-11.197,0-12.897-19.056-12.897-42.599c0-23.425,0-44.034,12.607-42.6
		c10.932,0.823,13.483,18.325,13.483,41.721C321.443,411.586,320.211,431.287,308.25,431.58"/>
</g>
</svg>
